G04 #@! TF.GenerationSoftware,KiCad,Pcbnew,(6.0.1-0)*
G04 #@! TF.CreationDate,2022-02-05T08:33:48-08:00*
G04 #@! TF.ProjectId,sketchy,736b6574-6368-4792-9e6b-696361645f70,1*
G04 #@! TF.SameCoordinates,Original*
G04 #@! TF.FileFunction,Soldermask,Top*
G04 #@! TF.FilePolarity,Negative*
%FSLAX46Y46*%
G04 Gerber Fmt 4.6, Leading zero omitted, Abs format (unit mm)*
G04 Created by KiCad (PCBNEW (6.0.1-0)) date 2022-02-05 08:33:48*
%MOMM*%
%LPD*%
G01*
G04 APERTURE LIST*
%ADD10C,3.048000*%
%ADD11C,3.000000*%
%ADD12C,3.987800*%
%ADD13C,1.750000*%
%ADD14R,1.700000X1.700000*%
%ADD15O,1.700000X1.700000*%
%ADD16R,2.000000X2.000000*%
%ADD17C,2.000000*%
%ADD18R,2.000000X3.200000*%
%ADD19R,1.752600X1.752600*%
%ADD20C,1.752600*%
%ADD21C,1.200000*%
%ADD22C,2.100000*%
G04 APERTURE END LIST*
D10*
X129349500Y-132397500D03*
X153225500Y-132397500D03*
D11*
X136207500Y-122872500D03*
D12*
X129349500Y-117157500D03*
D13*
X141287500Y-130492500D03*
D11*
X138747500Y-129222500D03*
D12*
X153225500Y-117157500D03*
D13*
X141287500Y-120332500D03*
D12*
X141287500Y-125412500D03*
D14*
X255085750Y-121602500D03*
D15*
X255085750Y-124142500D03*
X255085750Y-126682500D03*
X255085750Y-129222500D03*
D16*
X274756250Y-127437500D03*
D17*
X269756250Y-127437500D03*
X272256250Y-127437500D03*
D18*
X277856250Y-134937500D03*
X266656250Y-134937500D03*
D17*
X269756250Y-141937500D03*
X274756250Y-141937500D03*
D16*
X27106250Y-127437500D03*
D17*
X22106250Y-127437500D03*
X24606250Y-127437500D03*
D18*
X30206250Y-134937500D03*
X19006250Y-134937500D03*
D17*
X22106250Y-141937500D03*
X27106250Y-141937500D03*
D14*
X77285750Y-121602500D03*
D15*
X77285750Y-124142500D03*
X77285750Y-126682500D03*
X77285750Y-129222500D03*
D19*
X139223750Y-35242500D03*
D20*
X139223750Y-37782500D03*
X139223750Y-40322500D03*
X139223750Y-42862500D03*
X139223750Y-45402500D03*
X139223750Y-47942500D03*
X139223750Y-50482500D03*
X139223750Y-53022500D03*
X139223750Y-55562500D03*
X139223750Y-58102500D03*
X139223750Y-60642500D03*
X139223750Y-63182500D03*
X154463750Y-63182500D03*
X154463750Y-60642500D03*
X154463750Y-58102500D03*
X154463750Y-55562500D03*
X154463750Y-53022500D03*
X154463750Y-50482500D03*
X154463750Y-47942500D03*
X154463750Y-45402500D03*
X154463750Y-42862500D03*
X154463750Y-40322500D03*
X154463750Y-37782500D03*
X154463750Y-35242500D03*
X141763750Y-63182500D03*
X144303750Y-63182500D03*
X146843750Y-63182500D03*
X149383750Y-63182500D03*
X151923750Y-63182500D03*
D13*
X120173750Y-106362500D03*
X110013750Y-106362500D03*
D11*
X117633750Y-101282500D03*
D12*
X115093750Y-106362500D03*
D11*
X111283750Y-103822500D03*
D13*
X148431250Y-130492500D03*
D10*
X205581250Y-132397500D03*
D11*
X143351250Y-122872500D03*
D12*
X148431250Y-125412500D03*
D10*
X91281250Y-132397500D03*
D12*
X205581250Y-117157500D03*
X91281250Y-117157500D03*
D13*
X148431250Y-120332500D03*
D11*
X145891250Y-129222500D03*
D13*
X201136250Y-68262500D03*
D11*
X198596250Y-63182500D03*
X192246250Y-65722500D03*
D12*
X196056250Y-68262500D03*
D13*
X190976250Y-68262500D03*
X152876250Y-68262500D03*
X163036250Y-68262500D03*
D11*
X155416250Y-73342500D03*
X161766250Y-70802500D03*
D12*
X157956250Y-68262500D03*
D13*
X148431250Y-44132500D03*
D11*
X145891250Y-53022500D03*
D12*
X148431250Y-49212500D03*
D13*
X148431250Y-54292500D03*
D11*
X143351250Y-46672500D03*
X116046250Y-65722500D03*
X122396250Y-63182500D03*
D12*
X119856250Y-68262500D03*
D13*
X114776250Y-68262500D03*
X124936250Y-68262500D03*
D11*
X42227500Y-103822500D03*
D10*
X57975500Y-99377500D03*
D12*
X57975500Y-114617500D03*
D13*
X40957500Y-106362500D03*
D12*
X46037500Y-106362500D03*
X34099500Y-114617500D03*
D11*
X48577500Y-101282500D03*
D10*
X34099500Y-99377500D03*
D13*
X51117500Y-106362500D03*
D11*
X55403750Y-111442500D03*
D12*
X57943750Y-106362500D03*
D11*
X61753750Y-108902500D03*
D13*
X52863750Y-106362500D03*
X63023750Y-106362500D03*
X81438750Y-87312500D03*
D12*
X86518750Y-87312500D03*
D11*
X89058750Y-82232500D03*
X82708750Y-84772500D03*
D13*
X91598750Y-87312500D03*
X67786250Y-68262500D03*
D11*
X58896250Y-65722500D03*
D13*
X57626250Y-68262500D03*
D11*
X65246250Y-63182500D03*
D12*
X62706250Y-68262500D03*
D11*
X170021250Y-44132500D03*
D12*
X167481250Y-49212500D03*
D11*
X163671250Y-46672500D03*
D13*
X162401250Y-49212500D03*
X172561250Y-49212500D03*
D10*
X241268250Y-42227500D03*
D13*
X258286250Y-49212500D03*
X248126250Y-49212500D03*
D11*
X249396250Y-46672500D03*
X255746250Y-44132500D03*
D10*
X265144250Y-42227500D03*
D12*
X241268250Y-57467500D03*
X253206250Y-49212500D03*
X265144250Y-57467500D03*
X88868250Y-117157500D03*
D11*
X96996250Y-122872500D03*
X103346250Y-120332500D03*
D10*
X112744250Y-132397500D03*
D12*
X100806250Y-125412500D03*
D10*
X88868250Y-132397500D03*
D13*
X105886250Y-125412500D03*
D12*
X112744250Y-117157500D03*
D13*
X95726250Y-125412500D03*
D11*
X187483750Y-103822500D03*
D13*
X196373750Y-106362500D03*
D12*
X191293750Y-106362500D03*
D13*
X186213750Y-106362500D03*
D11*
X193833750Y-101282500D03*
D12*
X124618750Y-87312500D03*
D13*
X119538750Y-87312500D03*
D11*
X120808750Y-84772500D03*
D13*
X129698750Y-87312500D03*
D11*
X127158750Y-82232500D03*
D12*
X41275000Y-87312500D03*
D11*
X43815000Y-82232500D03*
D13*
X46355000Y-87312500D03*
X36195000Y-87312500D03*
D11*
X37465000Y-84772500D03*
X173196250Y-65722500D03*
D12*
X177006250Y-68262500D03*
D11*
X179546250Y-63182500D03*
D13*
X182086250Y-68262500D03*
X171926250Y-68262500D03*
D12*
X176974500Y-117157500D03*
X200850500Y-117157500D03*
D11*
X191452500Y-120332500D03*
D13*
X183832500Y-125412500D03*
D12*
X188912500Y-125412500D03*
D13*
X193992500Y-125412500D03*
D11*
X185102500Y-122872500D03*
D10*
X200850500Y-132397500D03*
X176974500Y-132397500D03*
D11*
X136366250Y-73342500D03*
D12*
X138906250Y-68262500D03*
D11*
X142716250Y-70802500D03*
D13*
X143986250Y-68262500D03*
X133826250Y-68262500D03*
D11*
X256540000Y-84772500D03*
D13*
X255270000Y-87312500D03*
D11*
X262890000Y-82232500D03*
D12*
X260350000Y-87312500D03*
D13*
X265430000Y-87312500D03*
D12*
X134143750Y-106362500D03*
D11*
X130333750Y-103822500D03*
X136683750Y-101282500D03*
D13*
X139223750Y-106362500D03*
X129063750Y-106362500D03*
X76676250Y-68262500D03*
D11*
X77946250Y-65722500D03*
D13*
X86836250Y-68262500D03*
D12*
X81756250Y-68262500D03*
D11*
X84296250Y-63182500D03*
X101758750Y-84772500D03*
D13*
X100488750Y-87312500D03*
D12*
X105568750Y-87312500D03*
D13*
X110648750Y-87312500D03*
D11*
X108108750Y-82232500D03*
D13*
X205898750Y-87312500D03*
X195738750Y-87312500D03*
D11*
X197008750Y-84772500D03*
X203358750Y-82232500D03*
D12*
X200818750Y-87312500D03*
X96043750Y-106362500D03*
D13*
X90963750Y-106362500D03*
D11*
X98583750Y-101282500D03*
D13*
X101123750Y-106362500D03*
D11*
X92233750Y-103822500D03*
D12*
X268605000Y-89725500D03*
D13*
X265430000Y-77787500D03*
X255270000Y-77787500D03*
D10*
X253365000Y-65849500D03*
D11*
X256540000Y-75247500D03*
D10*
X253365000Y-89725500D03*
D11*
X262890000Y-72707500D03*
D12*
X268605000Y-65849500D03*
X260350000Y-77787500D03*
D11*
X220821250Y-46672500D03*
X227171250Y-44132500D03*
D12*
X224631250Y-49212500D03*
D13*
X229711250Y-49212500D03*
X219551250Y-49212500D03*
D11*
X212883750Y-101282500D03*
D13*
X215423750Y-106362500D03*
X205263750Y-106362500D03*
D11*
X206533750Y-103822500D03*
D12*
X210343750Y-106362500D03*
D13*
X48101250Y-49212500D03*
D11*
X55721250Y-44132500D03*
D13*
X58261250Y-49212500D03*
D11*
X49371250Y-46672500D03*
D12*
X53181250Y-49212500D03*
D11*
X73183750Y-103822500D03*
D12*
X76993750Y-106362500D03*
D13*
X71913750Y-106362500D03*
D11*
X79533750Y-101282500D03*
D13*
X82073750Y-106362500D03*
D12*
X72231250Y-49212500D03*
D11*
X74771250Y-44132500D03*
D13*
X67151250Y-49212500D03*
D11*
X68421250Y-46672500D03*
D13*
X77311250Y-49212500D03*
D11*
X189071250Y-44132500D03*
D13*
X181451250Y-49212500D03*
D12*
X186531250Y-49212500D03*
D11*
X182721250Y-46672500D03*
D13*
X191611250Y-49212500D03*
D11*
X260191250Y-54292500D03*
X266541250Y-51752500D03*
D13*
X267811250Y-49212500D03*
D12*
X262731250Y-49212500D03*
D13*
X257651250Y-49212500D03*
D11*
X36671250Y-44132500D03*
D13*
X29051250Y-49212500D03*
D12*
X34131250Y-49212500D03*
D11*
X30321250Y-46672500D03*
D13*
X39211250Y-49212500D03*
X220186250Y-68262500D03*
D11*
X211296250Y-65722500D03*
X217646250Y-63182500D03*
D12*
X215106250Y-68262500D03*
D13*
X210026250Y-68262500D03*
X234473750Y-106362500D03*
D11*
X231933750Y-101282500D03*
D13*
X224313750Y-106362500D03*
D11*
X225583750Y-103822500D03*
D12*
X229393750Y-106362500D03*
D11*
X63658750Y-84772500D03*
D13*
X62388750Y-87312500D03*
X72548750Y-87312500D03*
D11*
X70008750Y-82232500D03*
D12*
X67468750Y-87312500D03*
D11*
X216058750Y-84772500D03*
D12*
X219868750Y-87312500D03*
D11*
X222408750Y-82232500D03*
D13*
X214788750Y-87312500D03*
X224948750Y-87312500D03*
D12*
X257968750Y-68262500D03*
D13*
X263048750Y-68262500D03*
D11*
X260508750Y-63182500D03*
D13*
X252888750Y-68262500D03*
D11*
X254158750Y-65722500D03*
D13*
X200501250Y-49212500D03*
D11*
X208121250Y-44132500D03*
X201771250Y-46672500D03*
D12*
X205581250Y-49212500D03*
D13*
X210661250Y-49212500D03*
X41592500Y-87312500D03*
D12*
X36512500Y-87312500D03*
D13*
X31432500Y-87312500D03*
D11*
X40322500Y-89852500D03*
X33972500Y-92392500D03*
X177958750Y-84772500D03*
D13*
X186848750Y-87312500D03*
D11*
X184308750Y-82232500D03*
D13*
X176688750Y-87312500D03*
D12*
X181768750Y-87312500D03*
X243681250Y-49212500D03*
D11*
X241141250Y-54292500D03*
D13*
X238601250Y-49212500D03*
D11*
X247491250Y-51752500D03*
D13*
X248761250Y-49212500D03*
D11*
X149383750Y-103822500D03*
D13*
X148113750Y-106362500D03*
X158273750Y-106362500D03*
D11*
X155733750Y-101282500D03*
D12*
X153193750Y-106362500D03*
D13*
X167798750Y-87312500D03*
D11*
X158908750Y-84772500D03*
D12*
X162718750Y-87312500D03*
D11*
X165258750Y-82232500D03*
D13*
X157638750Y-87312500D03*
X250507500Y-106362500D03*
D11*
X258127500Y-101282500D03*
X251777500Y-103822500D03*
D12*
X255587500Y-106362500D03*
D13*
X260667500Y-106362500D03*
D11*
X35083750Y-65722500D03*
X41433750Y-63182500D03*
D12*
X38893750Y-68262500D03*
D13*
X43973750Y-68262500D03*
X33813750Y-68262500D03*
D11*
X33972500Y-111442500D03*
D12*
X36512500Y-106362500D03*
D11*
X40322500Y-108902500D03*
D13*
X31432500Y-106362500D03*
X41592500Y-106362500D03*
D11*
X93821250Y-44132500D03*
D12*
X91281250Y-49212500D03*
D11*
X87471250Y-46672500D03*
D13*
X96361250Y-49212500D03*
X86201250Y-49212500D03*
D12*
X129381250Y-49212500D03*
D13*
X124301250Y-49212500D03*
D11*
X125571250Y-46672500D03*
X131921250Y-44132500D03*
D13*
X134461250Y-49212500D03*
D11*
X146208750Y-82232500D03*
D13*
X148748750Y-87312500D03*
D12*
X143668750Y-87312500D03*
D13*
X138588750Y-87312500D03*
D11*
X139858750Y-84772500D03*
D12*
X238918750Y-87312500D03*
D11*
X241458750Y-82232500D03*
X235108750Y-84772500D03*
D13*
X243998750Y-87312500D03*
X233838750Y-87312500D03*
X229076250Y-68262500D03*
X239236250Y-68262500D03*
D11*
X236696250Y-63182500D03*
X230346250Y-65722500D03*
D12*
X234156250Y-68262500D03*
D11*
X168433750Y-103822500D03*
D13*
X167163750Y-106362500D03*
D11*
X174783750Y-101282500D03*
D13*
X177323750Y-106362500D03*
D12*
X172243750Y-106362500D03*
D11*
X96996250Y-65722500D03*
D13*
X95726250Y-68262500D03*
X105886250Y-68262500D03*
D11*
X103346250Y-63182500D03*
D12*
X100806250Y-68262500D03*
D11*
X106521250Y-46672500D03*
D12*
X110331250Y-49212500D03*
D11*
X112871250Y-44132500D03*
D13*
X105251250Y-49212500D03*
X115411250Y-49212500D03*
D21*
X161012500Y-32633750D03*
D22*
X164512500Y-36333750D03*
X157502500Y-36333750D03*
D13*
X163512500Y-33843750D03*
X158512500Y-33843750D03*
M02*
