G04 #@! TF.GenerationSoftware,KiCad,Pcbnew,(6.0.1-0)*
G04 #@! TF.CreationDate,2022-02-05T08:33:48-08:00*
G04 #@! TF.ProjectId,sketchy,736b6574-6368-4792-9e6b-696361645f70,1*
G04 #@! TF.SameCoordinates,Original*
G04 #@! TF.FileFunction,Paste,Bot*
G04 #@! TF.FilePolarity,Positive*
%FSLAX46Y46*%
G04 Gerber Fmt 4.6, Leading zero omitted, Abs format (unit mm)*
G04 Created by KiCad (PCBNEW (6.0.1-0)) date 2022-02-05 08:33:48*
%MOMM*%
%LPD*%
G01*
G04 APERTURE LIST*
%ADD10R,2.500000X2.550000*%
%ADD11R,2.550000X2.500000*%
%ADD12R,0.800000X1.900000*%
G04 APERTURE END LIST*
D10*
X138747500Y-132497500D03*
X136207500Y-119570500D03*
D11*
X108008750Y-103822500D03*
X120935750Y-101282500D03*
D10*
X145891250Y-132497500D03*
X143351250Y-119570500D03*
D11*
X188971250Y-65722500D03*
X201898250Y-63182500D03*
X165041250Y-70802500D03*
X152114250Y-73342500D03*
D10*
X145891250Y-56297500D03*
X143351250Y-43370500D03*
D11*
X112771250Y-65722500D03*
X125698250Y-63182500D03*
X38952500Y-103822500D03*
X51879500Y-101282500D03*
X65028750Y-108902500D03*
X52101750Y-111442500D03*
X79433750Y-84772500D03*
X92360750Y-82232500D03*
X55621250Y-65722500D03*
X68548250Y-63182500D03*
X160396250Y-46672500D03*
X173323250Y-44132500D03*
X246121250Y-46672500D03*
X259048250Y-44132500D03*
X93721250Y-122872500D03*
X106648250Y-120332500D03*
X184208750Y-103822500D03*
X197135750Y-101282500D03*
X117533750Y-84772500D03*
X130460750Y-82232500D03*
X34190000Y-84772500D03*
X47117000Y-82232500D03*
X169921250Y-65722500D03*
X182848250Y-63182500D03*
X181827500Y-122872500D03*
X194754500Y-120332500D03*
X145991250Y-70802500D03*
X133064250Y-73342500D03*
X253265000Y-84772500D03*
X266192000Y-82232500D03*
X127058750Y-103822500D03*
X139985750Y-101282500D03*
X74671250Y-65722500D03*
X87598250Y-63182500D03*
X98483750Y-84772500D03*
X111410750Y-82232500D03*
X193733750Y-84772500D03*
X206660750Y-82232500D03*
X88958750Y-103822500D03*
X101885750Y-101282500D03*
X253265000Y-75247500D03*
X266192000Y-72707500D03*
X217546250Y-46672500D03*
X230473250Y-44132500D03*
X203258750Y-103822500D03*
X216185750Y-101282500D03*
X46096250Y-46672500D03*
X59023250Y-44132500D03*
X69908750Y-103822500D03*
X82835750Y-101282500D03*
X65146250Y-46672500D03*
X78073250Y-44132500D03*
X179446250Y-46672500D03*
X192373250Y-44132500D03*
X269816250Y-51752500D03*
X256889250Y-54292500D03*
X27046250Y-46672500D03*
X39973250Y-44132500D03*
X208021250Y-65722500D03*
X220948250Y-63182500D03*
X222308750Y-103822500D03*
X235235750Y-101282500D03*
X60383750Y-84772500D03*
X73310750Y-82232500D03*
X212783750Y-84772500D03*
X225710750Y-82232500D03*
X250883750Y-65722500D03*
X263810750Y-63182500D03*
X198496250Y-46672500D03*
X211423250Y-44132500D03*
X43597500Y-89852500D03*
X30670500Y-92392500D03*
X174683750Y-84772500D03*
X187610750Y-82232500D03*
X250766250Y-51752500D03*
X237839250Y-54292500D03*
X146108750Y-103822500D03*
X159035750Y-101282500D03*
X155633750Y-84772500D03*
X168560750Y-82232500D03*
X248502500Y-103822500D03*
X261429500Y-101282500D03*
X31808750Y-65722500D03*
X44735750Y-63182500D03*
X43597500Y-108902500D03*
X30670500Y-111442500D03*
X84196250Y-46672500D03*
X97123250Y-44132500D03*
X122296250Y-46672500D03*
X135223250Y-44132500D03*
X136583750Y-84772500D03*
X149510750Y-82232500D03*
X231833750Y-84772500D03*
X244760750Y-82232500D03*
X227071250Y-65722500D03*
X239998250Y-63182500D03*
X165158750Y-103822500D03*
X178085750Y-101282500D03*
X93721250Y-65722500D03*
X106648250Y-63182500D03*
X103246250Y-46672500D03*
X116173250Y-44132500D03*
D12*
X42706250Y-51681250D03*
X44606250Y-51681250D03*
X43656250Y-54681250D03*
X80806250Y-51681250D03*
X82706250Y-51681250D03*
X81756250Y-54681250D03*
X195106250Y-51681250D03*
X197006250Y-51681250D03*
X196056250Y-54681250D03*
X247493750Y-89781250D03*
X249393750Y-89781250D03*
X248443750Y-92781250D03*
X46675000Y-111212500D03*
X48575000Y-111212500D03*
X47625000Y-114212500D03*
X53025000Y-89781250D03*
X54925000Y-89781250D03*
X53975000Y-92781250D03*
X161768750Y-122325000D03*
X163668750Y-122325000D03*
X162718750Y-125325000D03*
X157006250Y-51681250D03*
X158906250Y-51681250D03*
X157956250Y-54681250D03*
X123668750Y-108831250D03*
X125568750Y-108831250D03*
X124618750Y-111831250D03*
X199868750Y-108831250D03*
X201768750Y-108831250D03*
X200818750Y-111831250D03*
X133193750Y-89781250D03*
X135093750Y-89781250D03*
X134143750Y-92781250D03*
X52231250Y-70731250D03*
X54131250Y-70731250D03*
X53181250Y-73731250D03*
X260193750Y-120737500D03*
X262093750Y-120737500D03*
X261143750Y-123737500D03*
X35562500Y-119943750D03*
X37462500Y-119943750D03*
X36512500Y-122943750D03*
X204631250Y-70731250D03*
X206531250Y-70731250D03*
X205581250Y-73731250D03*
X171293750Y-89781250D03*
X173193750Y-89781250D03*
X172243750Y-92781250D03*
X95093750Y-89781250D03*
X96993750Y-89781250D03*
X96043750Y-92781250D03*
X128431250Y-70731250D03*
X130331250Y-70731250D03*
X129381250Y-73731250D03*
X241143750Y-108831250D03*
X243043750Y-108831250D03*
X242093750Y-111831250D03*
X233206250Y-51681250D03*
X235106250Y-51681250D03*
X234156250Y-54681250D03*
X85568750Y-108831250D03*
X87468750Y-108831250D03*
X86518750Y-111831250D03*
X118906250Y-51681250D03*
X120806250Y-51681250D03*
X119856250Y-54681250D03*
X168118750Y-70731250D03*
X170018750Y-70731250D03*
X169068750Y-73731250D03*
X90331250Y-70731250D03*
X92231250Y-70731250D03*
X91281250Y-73731250D03*
X161768750Y-108831250D03*
X163668750Y-108831250D03*
X162718750Y-111831250D03*
X209393750Y-89781250D03*
X211293750Y-89781250D03*
X210343750Y-92781250D03*
X242731250Y-70731250D03*
X244631250Y-70731250D03*
X243681250Y-73731250D03*
M02*
