G04 #@! TF.GenerationSoftware,KiCad,Pcbnew,(6.0.1-0)*
G04 #@! TF.CreationDate,2022-02-05T08:33:48-08:00*
G04 #@! TF.ProjectId,sketchy,736b6574-6368-4792-9e6b-696361645f70,1*
G04 #@! TF.SameCoordinates,Original*
G04 #@! TF.FileFunction,Profile,NP*
%FSLAX46Y46*%
G04 Gerber Fmt 4.6, Leading zero omitted, Abs format (unit mm)*
G04 Created by KiCad (PCBNEW (6.0.1-0)) date 2022-02-05 08:33:48*
%MOMM*%
%LPD*%
G01*
G04 APERTURE LIST*
G04 #@! TA.AperFunction,Profile*
%ADD10C,0.200000*%
G04 #@! TD*
G04 APERTURE END LIST*
D10*
X262731250Y-136525000D02*
G75*
G03*
X261937500Y-135731250I-793750J0D01*
G01*
X34925000Y-135731249D02*
G75*
G03*
X34131249Y-136525000I0J-793751D01*
G01*
X23018750Y-125412500D02*
G75*
G03*
X24606250Y-123825000I0J1587500D01*
G01*
X272256248Y-123825000D02*
G75*
G03*
X273843750Y-125412502I1587502J0D01*
G01*
X136525000Y-32543750D02*
X136525000Y-38100000D01*
X262731251Y-136525000D02*
G75*
G03*
X280193750Y-140493750I9540563J1576605D01*
G01*
X166687500Y-38100000D02*
X166687500Y-32543750D01*
X280193750Y-129381250D02*
X280193750Y-140493750D01*
X270668750Y-39687500D02*
X168275000Y-39687500D01*
X16668750Y-140493750D02*
G75*
G03*
X34131249Y-136525000I7918750J5559374D01*
G01*
X16668750Y-129381250D02*
X16668750Y-140493750D01*
X23018750Y-125412501D02*
G75*
G03*
X16668750Y-129381250I1499299J-9463255D01*
G01*
X138112500Y-30956250D02*
G75*
G03*
X136525000Y-32543750I0J-1587500D01*
G01*
X272256250Y-41275000D02*
X272256250Y-123825000D01*
X166687500Y-32543750D02*
G75*
G03*
X165100000Y-30956250I-1587500J0D01*
G01*
X134937500Y-39687500D02*
G75*
G03*
X136525000Y-38100000I0J1587500D01*
G01*
X261937500Y-135731250D02*
X34925000Y-135731249D01*
X134937500Y-39687500D02*
X26193750Y-39687500D01*
X24606250Y-41275000D02*
X24606250Y-123825000D01*
X26193750Y-39687500D02*
G75*
G03*
X24606250Y-41275000I0J-1587500D01*
G01*
X165100000Y-30956250D02*
X138112500Y-30956250D01*
X280193750Y-129381250D02*
G75*
G03*
X273843750Y-125412502I-7955547J-5664505D01*
G01*
X272256250Y-41275000D02*
G75*
G03*
X270668750Y-39687500I-1587500J0D01*
G01*
X166687500Y-38100000D02*
G75*
G03*
X168275000Y-39687500I1587500J0D01*
G01*
M02*
