%FSLAX45Y45*%
G04 Gerber Fmt 4.5, Leading zero omitted, Abs format (unit mm)*
G04 Created by KiCad (PCBNEW (6.0.1-0)) date 2022-06-20 16:47:59*
%MOMM*%
%LPD*%
G01*
G04 APERTURE LIST*
%TA.AperFunction,Profile*%
%ADD10C,0.200000*%
%TD*%
%ADD11C,0.200000*%
%ADD12C,0.120000*%
%ADD13C,0.175000*%
%ADD14C,0.300000*%
%ADD15C,0.304800*%
%ADD16C,0.398780*%
G04 APERTURE END LIST*
D10*
X13811250Y-3254375D02*
X13811250Y-3810000D01*
X26273125Y-13652500D02*
G75*
G03*
X28019375Y-14049375I954056J157661D01*
G01*
X26273125Y-13652500D02*
G75*
G03*
X26193750Y-13573125I-79375J0D01*
G01*
X16827500Y-3810000D02*
X16827500Y-3254375D01*
X3492500Y-13573125D02*
G75*
G03*
X3413125Y-13652500I0J-79375D01*
G01*
X28019375Y-12938125D02*
X28019375Y-14049375D01*
X27066875Y-3968750D02*
X16986250Y-3968750D01*
X1666875Y-14049375D02*
G75*
G03*
X3413125Y-13652500I791875J555937D01*
G01*
X1666875Y-12938125D02*
X1666875Y-14049375D01*
X27225625Y-12382500D02*
G75*
G03*
X27384375Y-12541250I158750J0D01*
G01*
X2301875Y-12541250D02*
G75*
G03*
X1666875Y-12938125I149930J-946326D01*
G01*
X13970000Y-3095625D02*
G75*
G03*
X13811250Y-3254375I0J-158750D01*
G01*
X2301875Y-12541250D02*
G75*
G03*
X2460625Y-12382500I0J158750D01*
G01*
X27225625Y-4127500D02*
X27225625Y-12382500D01*
X16827500Y-3254375D02*
G75*
G03*
X16668750Y-3095625I-158750J0D01*
G01*
X13652500Y-3968750D02*
G75*
G03*
X13811250Y-3810000I0J158750D01*
G01*
X26193750Y-13573125D02*
X3492500Y-13573125D01*
X13652500Y-3968750D02*
X2619375Y-3968750D01*
X2460625Y-4127500D02*
X2460625Y-12382500D01*
X2619375Y-3968750D02*
G75*
G03*
X2460625Y-4127500I0J-158750D01*
G01*
X16668750Y-3095625D02*
X13970000Y-3095625D01*
X28019375Y-12938125D02*
G75*
G03*
X27384375Y-12541250I-795555J-566451D01*
G01*
X27225625Y-4127500D02*
G75*
G03*
X27066875Y-3968750I-158750J0D01*
G01*
X16827500Y-3810000D02*
G75*
G03*
X16986250Y-3968750I158750J0D01*
G01*
D11*
D12*
X16200000Y-3203375D02*
X16320000Y-3323375D01*
X16320000Y-3203375D02*
X16200000Y-3323375D01*
D13*
X2992625Y-4921250D02*
G75*
G03*
X2992625Y-4921250I-87500J0D01*
G01*
X3230750Y-8731250D02*
G75*
G03*
X3230750Y-8731250I-87500J0D01*
G01*
X3230750Y-10636250D02*
G75*
G03*
X3230750Y-10636250I-87500J0D01*
G01*
X3468875Y-6826250D02*
G75*
G03*
X3468875Y-6826250I-87500J0D01*
G01*
X3707000Y-8731250D02*
G75*
G03*
X3707000Y-8731250I-87500J0D01*
G01*
X4008625Y-4921250D02*
G75*
G03*
X4008625Y-4921250I-87500J0D01*
G01*
X4183250Y-10636250D02*
G75*
G03*
X4183250Y-10636250I-87500J0D01*
G01*
X4246750Y-8731250D02*
G75*
G03*
X4246750Y-8731250I-87500J0D01*
G01*
X4246750Y-10636250D02*
G75*
G03*
X4246750Y-10636250I-87500J0D01*
G01*
X4484875Y-6826250D02*
G75*
G03*
X4484875Y-6826250I-87500J0D01*
G01*
X4723000Y-8731250D02*
G75*
G03*
X4723000Y-8731250I-87500J0D01*
G01*
X4897625Y-4921250D02*
G75*
G03*
X4897625Y-4921250I-87500J0D01*
G01*
X5199250Y-10636250D02*
G75*
G03*
X5199250Y-10636250I-87500J0D01*
G01*
X5373875Y-10636250D02*
G75*
G03*
X5373875Y-10636250I-87500J0D01*
G01*
X5850125Y-6826250D02*
G75*
G03*
X5850125Y-6826250I-87500J0D01*
G01*
X5913625Y-4921250D02*
G75*
G03*
X5913625Y-4921250I-87500J0D01*
G01*
X6326375Y-8731250D02*
G75*
G03*
X6326375Y-8731250I-87500J0D01*
G01*
X6389875Y-10636250D02*
G75*
G03*
X6389875Y-10636250I-87500J0D01*
G01*
X6802625Y-4921250D02*
G75*
G03*
X6802625Y-4921250I-87500J0D01*
G01*
X6866125Y-6826250D02*
G75*
G03*
X6866125Y-6826250I-87500J0D01*
G01*
X7278875Y-10636250D02*
G75*
G03*
X7278875Y-10636250I-87500J0D01*
G01*
X7342375Y-8731250D02*
G75*
G03*
X7342375Y-8731250I-87500J0D01*
G01*
X7755125Y-6826250D02*
G75*
G03*
X7755125Y-6826250I-87500J0D01*
G01*
X7818625Y-4921250D02*
G75*
G03*
X7818625Y-4921250I-87500J0D01*
G01*
X8231375Y-8731250D02*
G75*
G03*
X8231375Y-8731250I-87500J0D01*
G01*
X8294875Y-10636250D02*
G75*
G03*
X8294875Y-10636250I-87500J0D01*
G01*
X8707625Y-4921250D02*
G75*
G03*
X8707625Y-4921250I-87500J0D01*
G01*
X8771125Y-6826250D02*
G75*
G03*
X8771125Y-6826250I-87500J0D01*
G01*
X9183875Y-10636250D02*
G75*
G03*
X9183875Y-10636250I-87500J0D01*
G01*
X9247375Y-8731250D02*
G75*
G03*
X9247375Y-8731250I-87500J0D01*
G01*
X9660125Y-6826250D02*
G75*
G03*
X9660125Y-6826250I-87500J0D01*
G01*
X9660125Y-12541250D02*
G75*
G03*
X9660125Y-12541250I-87500J0D01*
G01*
X9723625Y-4921250D02*
G75*
G03*
X9723625Y-4921250I-87500J0D01*
G01*
X10136375Y-8731250D02*
G75*
G03*
X10136375Y-8731250I-87500J0D01*
G01*
X10199875Y-10636250D02*
G75*
G03*
X10199875Y-10636250I-87500J0D01*
G01*
X10612625Y-4921250D02*
G75*
G03*
X10612625Y-4921250I-87500J0D01*
G01*
X10676125Y-6826250D02*
G75*
G03*
X10676125Y-6826250I-87500J0D01*
G01*
X10676125Y-12541250D02*
G75*
G03*
X10676125Y-12541250I-87500J0D01*
G01*
X11088875Y-10636250D02*
G75*
G03*
X11088875Y-10636250I-87500J0D01*
G01*
X11152375Y-8731250D02*
G75*
G03*
X11152375Y-8731250I-87500J0D01*
G01*
X11565125Y-6826250D02*
G75*
G03*
X11565125Y-6826250I-87500J0D01*
G01*
X11628625Y-4921250D02*
G75*
G03*
X11628625Y-4921250I-87500J0D01*
G01*
X12041375Y-8731250D02*
G75*
G03*
X12041375Y-8731250I-87500J0D01*
G01*
X12104875Y-10636250D02*
G75*
G03*
X12104875Y-10636250I-87500J0D01*
G01*
X12517625Y-4921250D02*
G75*
G03*
X12517625Y-4921250I-87500J0D01*
G01*
X12581125Y-6826250D02*
G75*
G03*
X12581125Y-6826250I-87500J0D01*
G01*
X12993875Y-10636250D02*
G75*
G03*
X12993875Y-10636250I-87500J0D01*
G01*
X13057375Y-8731250D02*
G75*
G03*
X13057375Y-8731250I-87500J0D01*
G01*
X13470125Y-6826250D02*
G75*
G03*
X13470125Y-6826250I-87500J0D01*
G01*
X13533625Y-4921250D02*
G75*
G03*
X13533625Y-4921250I-87500J0D01*
G01*
X13946375Y-8731250D02*
G75*
G03*
X13946375Y-8731250I-87500J0D01*
G01*
X14009875Y-10636250D02*
G75*
G03*
X14009875Y-10636250I-87500J0D01*
G01*
X14216250Y-12033250D02*
G75*
G03*
X14216250Y-12033250I-87500J0D01*
G01*
X14216250Y-13049250D02*
G75*
G03*
X14216250Y-13049250I-87500J0D01*
G01*
X14486125Y-6826250D02*
G75*
G03*
X14486125Y-6826250I-87500J0D01*
G01*
X14898875Y-10636250D02*
G75*
G03*
X14898875Y-10636250I-87500J0D01*
G01*
X14930625Y-4413250D02*
G75*
G03*
X14930625Y-4413250I-87500J0D01*
G01*
X14930625Y-5429250D02*
G75*
G03*
X14930625Y-5429250I-87500J0D01*
G01*
X14930625Y-12033250D02*
G75*
G03*
X14930625Y-12033250I-87500J0D01*
G01*
X14930625Y-13049250D02*
G75*
G03*
X14930625Y-13049250I-87500J0D01*
G01*
X14962375Y-8731250D02*
G75*
G03*
X14962375Y-8731250I-87500J0D01*
G01*
X15375125Y-6826250D02*
G75*
G03*
X15375125Y-6826250I-87500J0D01*
G01*
X15851375Y-8731250D02*
G75*
G03*
X15851375Y-8731250I-87500J0D01*
G01*
X15914875Y-10636250D02*
G75*
G03*
X15914875Y-10636250I-87500J0D01*
G01*
X16327625Y-4921250D02*
G75*
G03*
X16327625Y-4921250I-87500J0D01*
G01*
X16391125Y-6826250D02*
G75*
G03*
X16391125Y-6826250I-87500J0D01*
G01*
X16803875Y-10636250D02*
G75*
G03*
X16803875Y-10636250I-87500J0D01*
G01*
X16867375Y-8731250D02*
G75*
G03*
X16867375Y-8731250I-87500J0D01*
G01*
X17280125Y-6826250D02*
G75*
G03*
X17280125Y-6826250I-87500J0D01*
G01*
X17343625Y-4921250D02*
G75*
G03*
X17343625Y-4921250I-87500J0D01*
G01*
X17756375Y-8731250D02*
G75*
G03*
X17756375Y-8731250I-87500J0D01*
G01*
X17819875Y-10636250D02*
G75*
G03*
X17819875Y-10636250I-87500J0D01*
G01*
X18232625Y-4921250D02*
G75*
G03*
X18232625Y-4921250I-87500J0D01*
G01*
X18296125Y-6826250D02*
G75*
G03*
X18296125Y-6826250I-87500J0D01*
G01*
X18470750Y-12541250D02*
G75*
G03*
X18470750Y-12541250I-87500J0D01*
G01*
X18708875Y-10636250D02*
G75*
G03*
X18708875Y-10636250I-87500J0D01*
G01*
X18772375Y-8731250D02*
G75*
G03*
X18772375Y-8731250I-87500J0D01*
G01*
X19185125Y-6826250D02*
G75*
G03*
X19185125Y-6826250I-87500J0D01*
G01*
X19248625Y-4921250D02*
G75*
G03*
X19248625Y-4921250I-87500J0D01*
G01*
X19486750Y-12541250D02*
G75*
G03*
X19486750Y-12541250I-87500J0D01*
G01*
X19661375Y-8731250D02*
G75*
G03*
X19661375Y-8731250I-87500J0D01*
G01*
X19724875Y-10636250D02*
G75*
G03*
X19724875Y-10636250I-87500J0D01*
G01*
X20137625Y-4921250D02*
G75*
G03*
X20137625Y-4921250I-87500J0D01*
G01*
X20201125Y-6826250D02*
G75*
G03*
X20201125Y-6826250I-87500J0D01*
G01*
X20613875Y-10636250D02*
G75*
G03*
X20613875Y-10636250I-87500J0D01*
G01*
X20677375Y-8731250D02*
G75*
G03*
X20677375Y-8731250I-87500J0D01*
G01*
X21090125Y-6826250D02*
G75*
G03*
X21090125Y-6826250I-87500J0D01*
G01*
X21153625Y-4921250D02*
G75*
G03*
X21153625Y-4921250I-87500J0D01*
G01*
X21566375Y-8731250D02*
G75*
G03*
X21566375Y-8731250I-87500J0D01*
G01*
X21629875Y-10636250D02*
G75*
G03*
X21629875Y-10636250I-87500J0D01*
G01*
X22042625Y-4921250D02*
G75*
G03*
X22042625Y-4921250I-87500J0D01*
G01*
X22106125Y-6826250D02*
G75*
G03*
X22106125Y-6826250I-87500J0D01*
G01*
X22518875Y-10636250D02*
G75*
G03*
X22518875Y-10636250I-87500J0D01*
G01*
X22582375Y-8731250D02*
G75*
G03*
X22582375Y-8731250I-87500J0D01*
G01*
X22995125Y-6826250D02*
G75*
G03*
X22995125Y-6826250I-87500J0D01*
G01*
X23058625Y-4921250D02*
G75*
G03*
X23058625Y-4921250I-87500J0D01*
G01*
X23471375Y-8731250D02*
G75*
G03*
X23471375Y-8731250I-87500J0D01*
G01*
X23534875Y-10636250D02*
G75*
G03*
X23534875Y-10636250I-87500J0D01*
G01*
X23947625Y-4921250D02*
G75*
G03*
X23947625Y-4921250I-87500J0D01*
G01*
X24011125Y-6826250D02*
G75*
G03*
X24011125Y-6826250I-87500J0D01*
G01*
X24487375Y-8731250D02*
G75*
G03*
X24487375Y-8731250I-87500J0D01*
G01*
X24900125Y-4921250D02*
G75*
G03*
X24900125Y-4921250I-87500J0D01*
G01*
X24963625Y-4921250D02*
G75*
G03*
X24963625Y-4921250I-87500J0D01*
G01*
X25138250Y-10636250D02*
G75*
G03*
X25138250Y-10636250I-87500J0D01*
G01*
X25376375Y-6826250D02*
G75*
G03*
X25376375Y-6826250I-87500J0D01*
G01*
X25614500Y-7778750D02*
G75*
G03*
X25614500Y-7778750I-87500J0D01*
G01*
X25614500Y-8731250D02*
G75*
G03*
X25614500Y-8731250I-87500J0D01*
G01*
X25852625Y-4921250D02*
G75*
G03*
X25852625Y-4921250I-87500J0D01*
G01*
X25916125Y-4921250D02*
G75*
G03*
X25916125Y-4921250I-87500J0D01*
G01*
X26154250Y-10636250D02*
G75*
G03*
X26154250Y-10636250I-87500J0D01*
G01*
X26392375Y-6826250D02*
G75*
G03*
X26392375Y-6826250I-87500J0D01*
G01*
X26630500Y-7778750D02*
G75*
G03*
X26630500Y-7778750I-87500J0D01*
G01*
X26630500Y-8731250D02*
G75*
G03*
X26630500Y-8731250I-87500J0D01*
G01*
X26868625Y-4921250D02*
G75*
G03*
X26868625Y-4921250I-87500J0D01*
G01*
D14*
X3032125Y-4517250D02*
X3032125Y-4817250D01*
X2882125Y-4667250D02*
X3182125Y-4667250D01*
X3397250Y-9089250D02*
X3397250Y-9389250D01*
X3247250Y-9239250D02*
X3547250Y-9239250D01*
X3397250Y-10994250D02*
X3397250Y-11294250D01*
X3247250Y-11144250D02*
X3547250Y-11144250D01*
X3508375Y-6422250D02*
X3508375Y-6722250D01*
X3358375Y-6572250D02*
X3658375Y-6572250D01*
X3667125Y-4263250D02*
X3667125Y-4563250D01*
X3517125Y-4413250D02*
X3817125Y-4413250D01*
X3746500Y-8327250D02*
X3746500Y-8627250D01*
X3596500Y-8477250D02*
X3896500Y-8477250D01*
X4032250Y-8835250D02*
X4032250Y-9135250D01*
X3882250Y-8985250D02*
X4182250Y-8985250D01*
X4032250Y-10740250D02*
X4032250Y-11040250D01*
X3882250Y-10890250D02*
X4182250Y-10890250D01*
X4143375Y-6168250D02*
X4143375Y-6468250D01*
X3993375Y-6318250D02*
X4293375Y-6318250D01*
X4222750Y-10232250D02*
X4222750Y-10532250D01*
X4072750Y-10382250D02*
X4372750Y-10382250D01*
X4381500Y-8073250D02*
X4381500Y-8373250D01*
X4231500Y-8223250D02*
X4531500Y-8223250D01*
X4857750Y-9978250D02*
X4857750Y-10278250D01*
X4707750Y-10128250D02*
X5007750Y-10128250D01*
X4937125Y-4517250D02*
X4937125Y-4817250D01*
X4787125Y-4667250D02*
X5087125Y-4667250D01*
X5540375Y-10994250D02*
X5540375Y-11294250D01*
X5390375Y-11144250D02*
X5690375Y-11144250D01*
X5572125Y-4263250D02*
X5572125Y-4563250D01*
X5422125Y-4413250D02*
X5722125Y-4413250D01*
X5889625Y-6422250D02*
X5889625Y-6722250D01*
X5739625Y-6572250D02*
X6039625Y-6572250D01*
X6175375Y-10740250D02*
X6175375Y-11040250D01*
X6025375Y-10890250D02*
X6325375Y-10890250D01*
X6365875Y-8327250D02*
X6365875Y-8627250D01*
X6215875Y-8477250D02*
X6515875Y-8477250D01*
X6524625Y-6168250D02*
X6524625Y-6468250D01*
X6374625Y-6318250D02*
X6674625Y-6318250D01*
X6842125Y-4517250D02*
X6842125Y-4817250D01*
X6692125Y-4667250D02*
X6992125Y-4667250D01*
X7000875Y-8073250D02*
X7000875Y-8373250D01*
X6850875Y-8223250D02*
X7150875Y-8223250D01*
X7318375Y-10232250D02*
X7318375Y-10532250D01*
X7168375Y-10382250D02*
X7468375Y-10382250D01*
X7477125Y-4263250D02*
X7477125Y-4563250D01*
X7327125Y-4413250D02*
X7627125Y-4413250D01*
X7794625Y-6422250D02*
X7794625Y-6722250D01*
X7644625Y-6572250D02*
X7944625Y-6572250D01*
X7953375Y-9978250D02*
X7953375Y-10278250D01*
X7803375Y-10128250D02*
X8103375Y-10128250D01*
X8270875Y-8327250D02*
X8270875Y-8627250D01*
X8120875Y-8477250D02*
X8420875Y-8477250D01*
X8429625Y-6168250D02*
X8429625Y-6468250D01*
X8279625Y-6318250D02*
X8579625Y-6318250D01*
X8747125Y-4517250D02*
X8747125Y-4817250D01*
X8597125Y-4667250D02*
X8897125Y-4667250D01*
X8905875Y-8073250D02*
X8905875Y-8373250D01*
X8755875Y-8223250D02*
X9055875Y-8223250D01*
X9223375Y-10232250D02*
X9223375Y-10532250D01*
X9073375Y-10382250D02*
X9373375Y-10382250D01*
X9382125Y-4263250D02*
X9382125Y-4563250D01*
X9232125Y-4413250D02*
X9532125Y-4413250D01*
X9699625Y-6422250D02*
X9699625Y-6722250D01*
X9549625Y-6572250D02*
X9849625Y-6572250D01*
X9699625Y-12137250D02*
X9699625Y-12437250D01*
X9549625Y-12287250D02*
X9849625Y-12287250D01*
X9858375Y-9978250D02*
X9858375Y-10278250D01*
X9708375Y-10128250D02*
X10008375Y-10128250D01*
X10175875Y-8327250D02*
X10175875Y-8627250D01*
X10025875Y-8477250D02*
X10325875Y-8477250D01*
X10334625Y-6168250D02*
X10334625Y-6468250D01*
X10184625Y-6318250D02*
X10484625Y-6318250D01*
X10334625Y-11883250D02*
X10334625Y-12183250D01*
X10184625Y-12033250D02*
X10484625Y-12033250D01*
X10652125Y-4517250D02*
X10652125Y-4817250D01*
X10502125Y-4667250D02*
X10802125Y-4667250D01*
X10810875Y-8073250D02*
X10810875Y-8373250D01*
X10660875Y-8223250D02*
X10960875Y-8223250D01*
X11128375Y-10232250D02*
X11128375Y-10532250D01*
X10978375Y-10382250D02*
X11278375Y-10382250D01*
X11287125Y-4263250D02*
X11287125Y-4563250D01*
X11137125Y-4413250D02*
X11437125Y-4413250D01*
X11604625Y-6422250D02*
X11604625Y-6722250D01*
X11454625Y-6572250D02*
X11754625Y-6572250D01*
X11763375Y-9978250D02*
X11763375Y-10278250D01*
X11613375Y-10128250D02*
X11913375Y-10128250D01*
X12080875Y-8327250D02*
X12080875Y-8627250D01*
X11930875Y-8477250D02*
X12230875Y-8477250D01*
X12239625Y-6168250D02*
X12239625Y-6468250D01*
X12089625Y-6318250D02*
X12389625Y-6318250D01*
X12557125Y-4517250D02*
X12557125Y-4817250D01*
X12407125Y-4667250D02*
X12707125Y-4667250D01*
X12715875Y-8073250D02*
X12715875Y-8373250D01*
X12565875Y-8223250D02*
X12865875Y-8223250D01*
X13033375Y-10232250D02*
X13033375Y-10532250D01*
X12883375Y-10382250D02*
X13183375Y-10382250D01*
X13192125Y-4263250D02*
X13192125Y-4563250D01*
X13042125Y-4413250D02*
X13342125Y-4413250D01*
X13620750Y-12137250D02*
X13620750Y-12437250D01*
X13470750Y-12287250D02*
X13770750Y-12287250D01*
X13636625Y-7184250D02*
X13636625Y-7484250D01*
X13486625Y-7334250D02*
X13786625Y-7334250D01*
X13668375Y-9978250D02*
X13668375Y-10278250D01*
X13518375Y-10128250D02*
X13818375Y-10128250D01*
X13874750Y-12772250D02*
X13874750Y-13072250D01*
X13724750Y-12922250D02*
X14024750Y-12922250D01*
X13985875Y-8327250D02*
X13985875Y-8627250D01*
X13835875Y-8477250D02*
X14135875Y-8477250D01*
X14271625Y-6930250D02*
X14271625Y-7230250D01*
X14121625Y-7080250D02*
X14421625Y-7080250D01*
X14335125Y-4517250D02*
X14335125Y-4817250D01*
X14185125Y-4667250D02*
X14485125Y-4667250D01*
X14335125Y-12137250D02*
X14335125Y-12437250D01*
X14185125Y-12287250D02*
X14485125Y-12287250D01*
X14589125Y-5152250D02*
X14589125Y-5452250D01*
X14439125Y-5302250D02*
X14739125Y-5302250D01*
X14589125Y-12772250D02*
X14589125Y-13072250D01*
X14439125Y-12922250D02*
X14739125Y-12922250D01*
X14620875Y-8073250D02*
X14620875Y-8373250D01*
X14470875Y-8223250D02*
X14770875Y-8223250D01*
X14938375Y-10232250D02*
X14938375Y-10532250D01*
X14788375Y-10382250D02*
X15088375Y-10382250D01*
X15541625Y-7184250D02*
X15541625Y-7484250D01*
X15391625Y-7334250D02*
X15691625Y-7334250D01*
X15573375Y-9978250D02*
X15573375Y-10278250D01*
X15423375Y-10128250D02*
X15723375Y-10128250D01*
X15890875Y-8327250D02*
X15890875Y-8627250D01*
X15740875Y-8477250D02*
X16040875Y-8477250D01*
X16176625Y-6930250D02*
X16176625Y-7230250D01*
X16026625Y-7080250D02*
X16326625Y-7080250D01*
X16367125Y-4517250D02*
X16367125Y-4817250D01*
X16217125Y-4667250D02*
X16517125Y-4667250D01*
X16525875Y-8073250D02*
X16525875Y-8373250D01*
X16375875Y-8223250D02*
X16675875Y-8223250D01*
X16843375Y-10232250D02*
X16843375Y-10532250D01*
X16693375Y-10382250D02*
X16993375Y-10382250D01*
X17002125Y-4263250D02*
X17002125Y-4563250D01*
X16852125Y-4413250D02*
X17152125Y-4413250D01*
X17319625Y-6422250D02*
X17319625Y-6722250D01*
X17169625Y-6572250D02*
X17469625Y-6572250D01*
X17478375Y-9978250D02*
X17478375Y-10278250D01*
X17328375Y-10128250D02*
X17628375Y-10128250D01*
X17795875Y-8327250D02*
X17795875Y-8627250D01*
X17645875Y-8477250D02*
X17945875Y-8477250D01*
X17954625Y-6168250D02*
X17954625Y-6468250D01*
X17804625Y-6318250D02*
X18104625Y-6318250D01*
X18272125Y-4517250D02*
X18272125Y-4817250D01*
X18122125Y-4667250D02*
X18422125Y-4667250D01*
X18430875Y-8073250D02*
X18430875Y-8373250D01*
X18280875Y-8223250D02*
X18580875Y-8223250D01*
X18510250Y-12137250D02*
X18510250Y-12437250D01*
X18360250Y-12287250D02*
X18660250Y-12287250D01*
X18748375Y-10232250D02*
X18748375Y-10532250D01*
X18598375Y-10382250D02*
X18898375Y-10382250D01*
X18907125Y-4263250D02*
X18907125Y-4563250D01*
X18757125Y-4413250D02*
X19057125Y-4413250D01*
X19145250Y-11883250D02*
X19145250Y-12183250D01*
X18995250Y-12033250D02*
X19295250Y-12033250D01*
X19224625Y-6422250D02*
X19224625Y-6722250D01*
X19074625Y-6572250D02*
X19374625Y-6572250D01*
X19383375Y-9978250D02*
X19383375Y-10278250D01*
X19233375Y-10128250D02*
X19533375Y-10128250D01*
X19700875Y-8327250D02*
X19700875Y-8627250D01*
X19550875Y-8477250D02*
X19850875Y-8477250D01*
X19859625Y-6168250D02*
X19859625Y-6468250D01*
X19709625Y-6318250D02*
X20009625Y-6318250D01*
X20177125Y-4517250D02*
X20177125Y-4817250D01*
X20027125Y-4667250D02*
X20327125Y-4667250D01*
X20335875Y-8073250D02*
X20335875Y-8373250D01*
X20185875Y-8223250D02*
X20485875Y-8223250D01*
X20653375Y-10232250D02*
X20653375Y-10532250D01*
X20503375Y-10382250D02*
X20803375Y-10382250D01*
X20812125Y-4263250D02*
X20812125Y-4563250D01*
X20662125Y-4413250D02*
X20962125Y-4413250D01*
X21129625Y-6422250D02*
X21129625Y-6722250D01*
X20979625Y-6572250D02*
X21279625Y-6572250D01*
X21288375Y-9978250D02*
X21288375Y-10278250D01*
X21138375Y-10128250D02*
X21438375Y-10128250D01*
X21605875Y-8327250D02*
X21605875Y-8627250D01*
X21455875Y-8477250D02*
X21755875Y-8477250D01*
X21764625Y-6168250D02*
X21764625Y-6468250D01*
X21614625Y-6318250D02*
X21914625Y-6318250D01*
X22082125Y-4517250D02*
X22082125Y-4817250D01*
X21932125Y-4667250D02*
X22232125Y-4667250D01*
X22240875Y-8073250D02*
X22240875Y-8373250D01*
X22090875Y-8223250D02*
X22390875Y-8223250D01*
X22558375Y-10232250D02*
X22558375Y-10532250D01*
X22408375Y-10382250D02*
X22708375Y-10382250D01*
X22717125Y-4263250D02*
X22717125Y-4563250D01*
X22567125Y-4413250D02*
X22867125Y-4413250D01*
X23034625Y-6422250D02*
X23034625Y-6722250D01*
X22884625Y-6572250D02*
X23184625Y-6572250D01*
X23193375Y-9978250D02*
X23193375Y-10278250D01*
X23043375Y-10128250D02*
X23343375Y-10128250D01*
X23510875Y-8327250D02*
X23510875Y-8627250D01*
X23360875Y-8477250D02*
X23660875Y-8477250D01*
X23669625Y-6168250D02*
X23669625Y-6468250D01*
X23519625Y-6318250D02*
X23819625Y-6318250D01*
X24114125Y-5279250D02*
X24114125Y-5579250D01*
X23964125Y-5429250D02*
X24264125Y-5429250D01*
X24145875Y-8073250D02*
X24145875Y-8373250D01*
X23995875Y-8223250D02*
X24295875Y-8223250D01*
X24749125Y-5025250D02*
X24749125Y-5325250D01*
X24599125Y-5175250D02*
X24899125Y-5175250D01*
X24939625Y-4517250D02*
X24939625Y-4817250D01*
X24789625Y-4667250D02*
X25089625Y-4667250D01*
X25177750Y-10232250D02*
X25177750Y-10532250D01*
X25027750Y-10382250D02*
X25327750Y-10382250D01*
X25415875Y-6422250D02*
X25415875Y-6722250D01*
X25265875Y-6572250D02*
X25565875Y-6572250D01*
X25574625Y-4263250D02*
X25574625Y-4563250D01*
X25424625Y-4413250D02*
X25724625Y-4413250D01*
X25654000Y-7374750D02*
X25654000Y-7674750D01*
X25504000Y-7524750D02*
X25804000Y-7524750D01*
X25654000Y-8327250D02*
X25654000Y-8627250D01*
X25504000Y-8477250D02*
X25804000Y-8477250D01*
X25812750Y-9978250D02*
X25812750Y-10278250D01*
X25662750Y-10128250D02*
X25962750Y-10128250D01*
X26019125Y-5279250D02*
X26019125Y-5579250D01*
X25869125Y-5429250D02*
X26169125Y-5429250D01*
X26050875Y-6168250D02*
X26050875Y-6468250D01*
X25900875Y-6318250D02*
X26200875Y-6318250D01*
X26289000Y-7120750D02*
X26289000Y-7420750D01*
X26139000Y-7270750D02*
X26439000Y-7270750D01*
X26289000Y-8073250D02*
X26289000Y-8373250D01*
X26139000Y-8223250D02*
X26439000Y-8223250D01*
X26654125Y-5025250D02*
X26654125Y-5325250D01*
X26504125Y-5175250D02*
X26804125Y-5175250D01*
D15*
X3517714Y-10045514D02*
X3517714Y-9829986D01*
X3302186Y-9829986D01*
X3302186Y-10045514D01*
X3517714Y-10045514D01*
X5905314Y-10045514D02*
X5905314Y-9829986D01*
X5689786Y-9829986D01*
X5689786Y-10045514D01*
X5905314Y-10045514D01*
X8994589Y-13347514D02*
X8994589Y-13131986D01*
X8779061Y-13131986D01*
X8779061Y-13347514D01*
X8994589Y-13347514D01*
X9235889Y-13347514D02*
X9235889Y-13131986D01*
X9020361Y-13131986D01*
X9020361Y-13347514D01*
X9235889Y-13347514D01*
X11382189Y-13347514D02*
X11382189Y-13131986D01*
X11166661Y-13131986D01*
X11166661Y-13347514D01*
X11382189Y-13347514D01*
X13042714Y-13347514D02*
X13042714Y-13131986D01*
X12827186Y-13131986D01*
X12827186Y-13347514D01*
X13042714Y-13347514D01*
X15430314Y-13347514D02*
X15430314Y-13131986D01*
X15214786Y-13131986D01*
X15214786Y-13347514D01*
X15430314Y-13347514D01*
X17805214Y-13347514D02*
X17805214Y-13131986D01*
X17589686Y-13131986D01*
X17589686Y-13347514D01*
X17805214Y-13347514D01*
X20192814Y-13347514D02*
X20192814Y-13131986D01*
X19977286Y-13131986D01*
X19977286Y-13347514D01*
X20192814Y-13347514D01*
X20665889Y-13347514D02*
X20665889Y-13131986D01*
X20450361Y-13131986D01*
X20450361Y-13347514D01*
X20665889Y-13347514D01*
X24234589Y-4330514D02*
X24234589Y-4114986D01*
X24019061Y-4114986D01*
X24019061Y-4330514D01*
X24234589Y-4330514D01*
X25444264Y-6692714D02*
X25444264Y-6477186D01*
X25228736Y-6477186D01*
X25228736Y-6692714D01*
X25444264Y-6692714D01*
X25444264Y-9080314D02*
X25444264Y-8864786D01*
X25228736Y-8864786D01*
X25228736Y-9080314D01*
X25444264Y-9080314D01*
X26622189Y-4330514D02*
X26622189Y-4114986D01*
X26406661Y-4114986D01*
X26406661Y-4330514D01*
X26622189Y-4330514D01*
D16*
X3409950Y-11661140D02*
X3609340Y-11461750D01*
X3409950Y-11262360D01*
X3210560Y-11461750D01*
X3409950Y-11661140D01*
X3413125Y-5120640D02*
X3612515Y-4921250D01*
X3413125Y-4721860D01*
X3213735Y-4921250D01*
X3413125Y-5120640D01*
X3651250Y-8930640D02*
X3850640Y-8731250D01*
X3651250Y-8531860D01*
X3451860Y-8731250D01*
X3651250Y-8930640D01*
X3651250Y-10835640D02*
X3850640Y-10636250D01*
X3651250Y-10436860D01*
X3451860Y-10636250D01*
X3651250Y-10835640D01*
X3889375Y-7025640D02*
X4088765Y-6826250D01*
X3889375Y-6626860D01*
X3689985Y-6826250D01*
X3889375Y-7025640D01*
X4127500Y-8930640D02*
X4326890Y-8731250D01*
X4127500Y-8531860D01*
X3928110Y-8731250D01*
X4127500Y-8930640D01*
X4603750Y-10835640D02*
X4803140Y-10636250D01*
X4603750Y-10436860D01*
X4404360Y-10636250D01*
X4603750Y-10835640D01*
X5318125Y-5120640D02*
X5517515Y-4921250D01*
X5318125Y-4721860D01*
X5118735Y-4921250D01*
X5318125Y-5120640D01*
X5794375Y-10835640D02*
X5993765Y-10636250D01*
X5794375Y-10436860D01*
X5594985Y-10636250D01*
X5794375Y-10835640D01*
X5797550Y-11661140D02*
X5996940Y-11461750D01*
X5797550Y-11262360D01*
X5598160Y-11461750D01*
X5797550Y-11661140D01*
X6270625Y-7025640D02*
X6470015Y-6826250D01*
X6270625Y-6626860D01*
X6071235Y-6826250D01*
X6270625Y-7025640D01*
X6746875Y-8930640D02*
X6946265Y-8731250D01*
X6746875Y-8531860D01*
X6547485Y-8731250D01*
X6746875Y-8930640D01*
X7223125Y-5120640D02*
X7422515Y-4921250D01*
X7223125Y-4721860D01*
X7023735Y-4921250D01*
X7223125Y-5120640D01*
X7699375Y-10835640D02*
X7898765Y-10636250D01*
X7699375Y-10436860D01*
X7499985Y-10636250D01*
X7699375Y-10835640D01*
X8175625Y-7025640D02*
X8375015Y-6826250D01*
X8175625Y-6626860D01*
X7976235Y-6826250D01*
X8175625Y-7025640D01*
X8651875Y-8930640D02*
X8851265Y-8731250D01*
X8651875Y-8531860D01*
X8452485Y-8731250D01*
X8651875Y-8930640D01*
X8886825Y-11915140D02*
X9086215Y-11715750D01*
X8886825Y-11516360D01*
X8687435Y-11715750D01*
X8886825Y-11915140D01*
X9128125Y-5120640D02*
X9327515Y-4921250D01*
X9128125Y-4721860D01*
X8928735Y-4921250D01*
X9128125Y-5120640D01*
X9128125Y-11915140D02*
X9327515Y-11715750D01*
X9128125Y-11516360D01*
X8928735Y-11715750D01*
X9128125Y-11915140D01*
X9604375Y-10835640D02*
X9803765Y-10636250D01*
X9604375Y-10436860D01*
X9404985Y-10636250D01*
X9604375Y-10835640D01*
X10080625Y-7025640D02*
X10280015Y-6826250D01*
X10080625Y-6626860D01*
X9881235Y-6826250D01*
X10080625Y-7025640D01*
X10080625Y-12740640D02*
X10280015Y-12541250D01*
X10080625Y-12341860D01*
X9881235Y-12541250D01*
X10080625Y-12740640D01*
X10556875Y-8930640D02*
X10756265Y-8731250D01*
X10556875Y-8531860D01*
X10357485Y-8731250D01*
X10556875Y-8930640D01*
X11033125Y-5120640D02*
X11232515Y-4921250D01*
X11033125Y-4721860D01*
X10833735Y-4921250D01*
X11033125Y-5120640D01*
X11274425Y-11915140D02*
X11473815Y-11715750D01*
X11274425Y-11516360D01*
X11075035Y-11715750D01*
X11274425Y-11915140D01*
X11509375Y-10835640D02*
X11708765Y-10636250D01*
X11509375Y-10436860D01*
X11309985Y-10636250D01*
X11509375Y-10835640D01*
X11985625Y-7025640D02*
X12185015Y-6826250D01*
X11985625Y-6626860D01*
X11786235Y-6826250D01*
X11985625Y-7025640D01*
X12461875Y-8930640D02*
X12661265Y-8731250D01*
X12461875Y-8531860D01*
X12262485Y-8731250D01*
X12461875Y-8930640D01*
X12934950Y-11915140D02*
X13134340Y-11715750D01*
X12934950Y-11516360D01*
X12735560Y-11715750D01*
X12934950Y-11915140D01*
X12938125Y-5120640D02*
X13137515Y-4921250D01*
X12938125Y-4721860D01*
X12738735Y-4921250D01*
X12938125Y-5120640D01*
X13414375Y-10835640D02*
X13613765Y-10636250D01*
X13414375Y-10436860D01*
X13214985Y-10636250D01*
X13414375Y-10835640D01*
X13890625Y-7025640D02*
X14090015Y-6826250D01*
X13890625Y-6626860D01*
X13691235Y-6826250D01*
X13890625Y-7025640D01*
X14128750Y-12740640D02*
X14328140Y-12541250D01*
X14128750Y-12341860D01*
X13929360Y-12541250D01*
X14128750Y-12740640D01*
X14366875Y-8930640D02*
X14566265Y-8731250D01*
X14366875Y-8531860D01*
X14167485Y-8731250D01*
X14366875Y-8930640D01*
X14843125Y-5120640D02*
X15042515Y-4921250D01*
X14843125Y-4721860D01*
X14643735Y-4921250D01*
X14843125Y-5120640D01*
X14843125Y-12740640D02*
X15042515Y-12541250D01*
X14843125Y-12341860D01*
X14643735Y-12541250D01*
X14843125Y-12740640D01*
X15319375Y-10835640D02*
X15518765Y-10636250D01*
X15319375Y-10436860D01*
X15119985Y-10636250D01*
X15319375Y-10835640D01*
X15322550Y-11915140D02*
X15521940Y-11715750D01*
X15322550Y-11516360D01*
X15123160Y-11715750D01*
X15322550Y-11915140D01*
X15795625Y-7025640D02*
X15995015Y-6826250D01*
X15795625Y-6626860D01*
X15596235Y-6826250D01*
X15795625Y-7025640D01*
X16271875Y-8930640D02*
X16471265Y-8731250D01*
X16271875Y-8531860D01*
X16072485Y-8731250D01*
X16271875Y-8930640D01*
X16748125Y-5120640D02*
X16947515Y-4921250D01*
X16748125Y-4721860D01*
X16548735Y-4921250D01*
X16748125Y-5120640D01*
X17224375Y-10835640D02*
X17423765Y-10636250D01*
X17224375Y-10436860D01*
X17024985Y-10636250D01*
X17224375Y-10835640D01*
X17697450Y-11915140D02*
X17896840Y-11715750D01*
X17697450Y-11516360D01*
X17498060Y-11715750D01*
X17697450Y-11915140D01*
X17700625Y-7025640D02*
X17900015Y-6826250D01*
X17700625Y-6626860D01*
X17501235Y-6826250D01*
X17700625Y-7025640D01*
X18176875Y-8930640D02*
X18376265Y-8731250D01*
X18176875Y-8531860D01*
X17977485Y-8731250D01*
X18176875Y-8930640D01*
X18653125Y-5120640D02*
X18852515Y-4921250D01*
X18653125Y-4721860D01*
X18453735Y-4921250D01*
X18653125Y-5120640D01*
X18891250Y-12740640D02*
X19090640Y-12541250D01*
X18891250Y-12341860D01*
X18691860Y-12541250D01*
X18891250Y-12740640D01*
X19129375Y-10835640D02*
X19328765Y-10636250D01*
X19129375Y-10436860D01*
X18929985Y-10636250D01*
X19129375Y-10835640D01*
X19605625Y-7025640D02*
X19805015Y-6826250D01*
X19605625Y-6626860D01*
X19406235Y-6826250D01*
X19605625Y-7025640D01*
X20081875Y-8930640D02*
X20281265Y-8731250D01*
X20081875Y-8531860D01*
X19882485Y-8731250D01*
X20081875Y-8930640D01*
X20085050Y-11915140D02*
X20284440Y-11715750D01*
X20085050Y-11516360D01*
X19885660Y-11715750D01*
X20085050Y-11915140D01*
X20558125Y-5120640D02*
X20757515Y-4921250D01*
X20558125Y-4721860D01*
X20358735Y-4921250D01*
X20558125Y-5120640D01*
X20558125Y-11915140D02*
X20757515Y-11715750D01*
X20558125Y-11516360D01*
X20358735Y-11715750D01*
X20558125Y-11915140D01*
X21034375Y-10835640D02*
X21233765Y-10636250D01*
X21034375Y-10436860D01*
X20834985Y-10636250D01*
X21034375Y-10835640D01*
X21510625Y-7025640D02*
X21710015Y-6826250D01*
X21510625Y-6626860D01*
X21311235Y-6826250D01*
X21510625Y-7025640D01*
X21986875Y-8930640D02*
X22186265Y-8731250D01*
X21986875Y-8531860D01*
X21787485Y-8731250D01*
X21986875Y-8930640D01*
X22463125Y-5120640D02*
X22662515Y-4921250D01*
X22463125Y-4721860D01*
X22263735Y-4921250D01*
X22463125Y-5120640D01*
X22939375Y-10835640D02*
X23138765Y-10636250D01*
X22939375Y-10436860D01*
X22739985Y-10636250D01*
X22939375Y-10835640D01*
X23415625Y-7025640D02*
X23615015Y-6826250D01*
X23415625Y-6626860D01*
X23216235Y-6826250D01*
X23415625Y-7025640D01*
X23891875Y-8930640D02*
X24091265Y-8731250D01*
X23891875Y-8531860D01*
X23692485Y-8731250D01*
X23891875Y-8930640D01*
X24126825Y-5946140D02*
X24326215Y-5746750D01*
X24126825Y-5547360D01*
X23927435Y-5746750D01*
X24126825Y-5946140D01*
X24368125Y-5120640D02*
X24567515Y-4921250D01*
X24368125Y-4721860D01*
X24168735Y-4921250D01*
X24368125Y-5120640D01*
X25320625Y-5120640D02*
X25520015Y-4921250D01*
X25320625Y-4721860D01*
X25121235Y-4921250D01*
X25320625Y-5120640D01*
X25558750Y-10835640D02*
X25758140Y-10636250D01*
X25558750Y-10436860D01*
X25359360Y-10636250D01*
X25558750Y-10835640D01*
X25796875Y-7025640D02*
X25996265Y-6826250D01*
X25796875Y-6626860D01*
X25597485Y-6826250D01*
X25796875Y-7025640D01*
X26035000Y-7978140D02*
X26234390Y-7778750D01*
X26035000Y-7579360D01*
X25835610Y-7778750D01*
X26035000Y-7978140D01*
X26035000Y-8930640D02*
X26234390Y-8731250D01*
X26035000Y-8531860D01*
X25835610Y-8731250D01*
X26035000Y-8930640D01*
X26273125Y-5120640D02*
X26472515Y-4921250D01*
X26273125Y-4721860D01*
X26073735Y-4921250D01*
X26273125Y-5120640D01*
X26514425Y-5946140D02*
X26713815Y-5746750D01*
X26514425Y-5547360D01*
X26315035Y-5746750D01*
X26514425Y-5946140D01*
X26860500Y-6784340D02*
X27059890Y-6584950D01*
X26860500Y-6385560D01*
X26661110Y-6584950D01*
X26860500Y-6784340D01*
X26860500Y-9171940D02*
X27059890Y-8972550D01*
X26860500Y-8773160D01*
X26661110Y-8972550D01*
X26860500Y-9171940D01*
D11*
X1914494Y-14782311D02*
X1914494Y-14582311D01*
X1962113Y-14582311D01*
X1990684Y-14591835D01*
X2009732Y-14610883D01*
X2019256Y-14629930D01*
X2028780Y-14668025D01*
X2028780Y-14696597D01*
X2019256Y-14734692D01*
X2009732Y-14753740D01*
X1990684Y-14772787D01*
X1962113Y-14782311D01*
X1914494Y-14782311D01*
X2114494Y-14782311D02*
X2114494Y-14648978D01*
X2114494Y-14687073D02*
X2124018Y-14668025D01*
X2133542Y-14658502D01*
X2152589Y-14648978D01*
X2171637Y-14648978D01*
X2238304Y-14782311D02*
X2238304Y-14648978D01*
X2238304Y-14582311D02*
X2228780Y-14591835D01*
X2238304Y-14601359D01*
X2247827Y-14591835D01*
X2238304Y-14582311D01*
X2238304Y-14601359D01*
X2362113Y-14782311D02*
X2343065Y-14772787D01*
X2333542Y-14753740D01*
X2333542Y-14582311D01*
X2466875Y-14782311D02*
X2447827Y-14772787D01*
X2438304Y-14753740D01*
X2438304Y-14582311D01*
X2695446Y-14782311D02*
X2695446Y-14582311D01*
X2762113Y-14725168D01*
X2828780Y-14582311D01*
X2828780Y-14782311D01*
X3009732Y-14782311D02*
X3009732Y-14677549D01*
X3000208Y-14658502D01*
X2981161Y-14648978D01*
X2943065Y-14648978D01*
X2924018Y-14658502D01*
X3009732Y-14772787D02*
X2990684Y-14782311D01*
X2943065Y-14782311D01*
X2924018Y-14772787D01*
X2914494Y-14753740D01*
X2914494Y-14734692D01*
X2924018Y-14715644D01*
X2943065Y-14706121D01*
X2990684Y-14706121D01*
X3009732Y-14696597D01*
X3104970Y-14648978D02*
X3104970Y-14848978D01*
X3104970Y-14658502D02*
X3124018Y-14648978D01*
X3162113Y-14648978D01*
X3181161Y-14658502D01*
X3190684Y-14668025D01*
X3200208Y-14687073D01*
X3200208Y-14744216D01*
X3190684Y-14763263D01*
X3181161Y-14772787D01*
X3162113Y-14782311D01*
X3124018Y-14782311D01*
X3104970Y-14772787D01*
X3285923Y-14763263D02*
X3295446Y-14772787D01*
X3285923Y-14782311D01*
X3276399Y-14772787D01*
X3285923Y-14763263D01*
X3285923Y-14782311D01*
X3285923Y-14658502D02*
X3295446Y-14668025D01*
X3285923Y-14677549D01*
X3276399Y-14668025D01*
X3285923Y-14658502D01*
X3285923Y-14677549D01*
D12*
X1536875Y-15051835D02*
X1656875Y-15171835D01*
X1656875Y-15051835D02*
X1536875Y-15171835D01*
D11*
X2019256Y-15202311D02*
X1904970Y-15202311D01*
X1962113Y-15202311D02*
X1962113Y-15002311D01*
X1943065Y-15030883D01*
X1924018Y-15049930D01*
X1904970Y-15059454D01*
X2104970Y-15183263D02*
X2114494Y-15192787D01*
X2104970Y-15202311D01*
X2095446Y-15192787D01*
X2104970Y-15183263D01*
X2104970Y-15202311D01*
X2190685Y-15021359D02*
X2200208Y-15011835D01*
X2219256Y-15002311D01*
X2266875Y-15002311D01*
X2285923Y-15011835D01*
X2295446Y-15021359D01*
X2304970Y-15040406D01*
X2304970Y-15059454D01*
X2295446Y-15088025D01*
X2181161Y-15202311D01*
X2304970Y-15202311D01*
X2428780Y-15002311D02*
X2447827Y-15002311D01*
X2466875Y-15011835D01*
X2476399Y-15021359D01*
X2485923Y-15040406D01*
X2495446Y-15078502D01*
X2495446Y-15126121D01*
X2485923Y-15164216D01*
X2476399Y-15183263D01*
X2466875Y-15192787D01*
X2447827Y-15202311D01*
X2428780Y-15202311D01*
X2409732Y-15192787D01*
X2400208Y-15183263D01*
X2390685Y-15164216D01*
X2381161Y-15126121D01*
X2381161Y-15078502D01*
X2390685Y-15040406D01*
X2400208Y-15021359D01*
X2409732Y-15011835D01*
X2428780Y-15002311D01*
X2619256Y-15002311D02*
X2638304Y-15002311D01*
X2657351Y-15011835D01*
X2666875Y-15021359D01*
X2676399Y-15040406D01*
X2685923Y-15078502D01*
X2685923Y-15126121D01*
X2676399Y-15164216D01*
X2666875Y-15183263D01*
X2657351Y-15192787D01*
X2638304Y-15202311D01*
X2619256Y-15202311D01*
X2600208Y-15192787D01*
X2590685Y-15183263D01*
X2581161Y-15164216D01*
X2571637Y-15126121D01*
X2571637Y-15078502D01*
X2581161Y-15040406D01*
X2590685Y-15021359D01*
X2600208Y-15011835D01*
X2619256Y-15002311D01*
X2771637Y-15202311D02*
X2771637Y-15068978D01*
X2771637Y-15088025D02*
X2781161Y-15078502D01*
X2800208Y-15068978D01*
X2828780Y-15068978D01*
X2847827Y-15078502D01*
X2857351Y-15097549D01*
X2857351Y-15202311D01*
X2857351Y-15097549D02*
X2866875Y-15078502D01*
X2885923Y-15068978D01*
X2914494Y-15068978D01*
X2933542Y-15078502D01*
X2943065Y-15097549D01*
X2943065Y-15202311D01*
X3038303Y-15202311D02*
X3038303Y-15068978D01*
X3038303Y-15088025D02*
X3047827Y-15078502D01*
X3066875Y-15068978D01*
X3095446Y-15068978D01*
X3114494Y-15078502D01*
X3124018Y-15097549D01*
X3124018Y-15202311D01*
X3124018Y-15097549D02*
X3133542Y-15078502D01*
X3152589Y-15068978D01*
X3181161Y-15068978D01*
X3200208Y-15078502D01*
X3209732Y-15097549D01*
X3209732Y-15202311D01*
X3600208Y-14992787D02*
X3428780Y-15249930D01*
X3857351Y-15002311D02*
X3876399Y-15002311D01*
X3895446Y-15011835D01*
X3904970Y-15021359D01*
X3914494Y-15040406D01*
X3924018Y-15078502D01*
X3924018Y-15126121D01*
X3914494Y-15164216D01*
X3904970Y-15183263D01*
X3895446Y-15192787D01*
X3876399Y-15202311D01*
X3857351Y-15202311D01*
X3838303Y-15192787D01*
X3828780Y-15183263D01*
X3819256Y-15164216D01*
X3809732Y-15126121D01*
X3809732Y-15078502D01*
X3819256Y-15040406D01*
X3828780Y-15021359D01*
X3838303Y-15011835D01*
X3857351Y-15002311D01*
X4009732Y-15183263D02*
X4019256Y-15192787D01*
X4009732Y-15202311D01*
X4000208Y-15192787D01*
X4009732Y-15183263D01*
X4009732Y-15202311D01*
X4143065Y-15002311D02*
X4162113Y-15002311D01*
X4181161Y-15011835D01*
X4190684Y-15021359D01*
X4200208Y-15040406D01*
X4209732Y-15078502D01*
X4209732Y-15126121D01*
X4200208Y-15164216D01*
X4190684Y-15183263D01*
X4181161Y-15192787D01*
X4162113Y-15202311D01*
X4143065Y-15202311D01*
X4124018Y-15192787D01*
X4114494Y-15183263D01*
X4104970Y-15164216D01*
X4095446Y-15126121D01*
X4095446Y-15078502D01*
X4104970Y-15040406D01*
X4114494Y-15021359D01*
X4124018Y-15011835D01*
X4143065Y-15002311D01*
X4381161Y-15068978D02*
X4381161Y-15202311D01*
X4333542Y-14992787D02*
X4285923Y-15135644D01*
X4409732Y-15135644D01*
X4466875Y-15002311D02*
X4600208Y-15002311D01*
X4514494Y-15202311D01*
X4666875Y-15021359D02*
X4676399Y-15011835D01*
X4695446Y-15002311D01*
X4743065Y-15002311D01*
X4762113Y-15011835D01*
X4771637Y-15021359D01*
X4781161Y-15040406D01*
X4781161Y-15059454D01*
X4771637Y-15088025D01*
X4657351Y-15202311D01*
X4781161Y-15202311D01*
X4857351Y-15002311D02*
X4857351Y-15040406D01*
X4933542Y-15002311D02*
X4933542Y-15040406D01*
X5228780Y-15278502D02*
X5219256Y-15268978D01*
X5200208Y-15240406D01*
X5190685Y-15221359D01*
X5181161Y-15192787D01*
X5171637Y-15145168D01*
X5171637Y-15107073D01*
X5181161Y-15059454D01*
X5190685Y-15030883D01*
X5200208Y-15011835D01*
X5219256Y-14983263D01*
X5228780Y-14973740D01*
X5409732Y-15202311D02*
X5295446Y-15202311D01*
X5352589Y-15202311D02*
X5352589Y-15002311D01*
X5333542Y-15030883D01*
X5314494Y-15049930D01*
X5295446Y-15059454D01*
X5647827Y-15202311D02*
X5647827Y-15002311D01*
X5733542Y-15202311D02*
X5733542Y-15097549D01*
X5724018Y-15078502D01*
X5704970Y-15068978D01*
X5676399Y-15068978D01*
X5657351Y-15078502D01*
X5647827Y-15088025D01*
X5857351Y-15202311D02*
X5838303Y-15192787D01*
X5828780Y-15183263D01*
X5819256Y-15164216D01*
X5819256Y-15107073D01*
X5828780Y-15088025D01*
X5838303Y-15078502D01*
X5857351Y-15068978D01*
X5885923Y-15068978D01*
X5904970Y-15078502D01*
X5914494Y-15088025D01*
X5924018Y-15107073D01*
X5924018Y-15164216D01*
X5914494Y-15183263D01*
X5904970Y-15192787D01*
X5885923Y-15202311D01*
X5857351Y-15202311D01*
X6038303Y-15202311D02*
X6019256Y-15192787D01*
X6009732Y-15173740D01*
X6009732Y-15002311D01*
X6190684Y-15192787D02*
X6171637Y-15202311D01*
X6133542Y-15202311D01*
X6114494Y-15192787D01*
X6104970Y-15173740D01*
X6104970Y-15097549D01*
X6114494Y-15078502D01*
X6133542Y-15068978D01*
X6171637Y-15068978D01*
X6190684Y-15078502D01*
X6200208Y-15097549D01*
X6200208Y-15116597D01*
X6104970Y-15135644D01*
X6266875Y-15278502D02*
X6276399Y-15268978D01*
X6295446Y-15240406D01*
X6304970Y-15221359D01*
X6314494Y-15192787D01*
X6324018Y-15145168D01*
X6324018Y-15107073D01*
X6314494Y-15059454D01*
X6304970Y-15030883D01*
X6295446Y-15011835D01*
X6276399Y-14983263D01*
X6266875Y-14973740D01*
X6628780Y-15278502D02*
X6619256Y-15268978D01*
X6600208Y-15240406D01*
X6590684Y-15221359D01*
X6581161Y-15192787D01*
X6571637Y-15145168D01*
X6571637Y-15107073D01*
X6581161Y-15059454D01*
X6590684Y-15030883D01*
X6600208Y-15011835D01*
X6619256Y-14983263D01*
X6628780Y-14973740D01*
X6704970Y-15068978D02*
X6704970Y-15202311D01*
X6704970Y-15088025D02*
X6714494Y-15078502D01*
X6733542Y-15068978D01*
X6762113Y-15068978D01*
X6781161Y-15078502D01*
X6790684Y-15097549D01*
X6790684Y-15202311D01*
X6914494Y-15202311D02*
X6895446Y-15192787D01*
X6885923Y-15183263D01*
X6876399Y-15164216D01*
X6876399Y-15107073D01*
X6885923Y-15088025D01*
X6895446Y-15078502D01*
X6914494Y-15068978D01*
X6943065Y-15068978D01*
X6962113Y-15078502D01*
X6971637Y-15088025D01*
X6981161Y-15107073D01*
X6981161Y-15164216D01*
X6971637Y-15183263D01*
X6962113Y-15192787D01*
X6943065Y-15202311D01*
X6914494Y-15202311D01*
X7038303Y-15068978D02*
X7114494Y-15068978D01*
X7066875Y-15002311D02*
X7066875Y-15173740D01*
X7076399Y-15192787D01*
X7095446Y-15202311D01*
X7114494Y-15202311D01*
X7333542Y-15068978D02*
X7333542Y-15268978D01*
X7333542Y-15078502D02*
X7352589Y-15068978D01*
X7390684Y-15068978D01*
X7409732Y-15078502D01*
X7419256Y-15088025D01*
X7428780Y-15107073D01*
X7428780Y-15164216D01*
X7419256Y-15183263D01*
X7409732Y-15192787D01*
X7390684Y-15202311D01*
X7352589Y-15202311D01*
X7333542Y-15192787D01*
X7543065Y-15202311D02*
X7524018Y-15192787D01*
X7514494Y-15173740D01*
X7514494Y-15002311D01*
X7704970Y-15202311D02*
X7704970Y-15097549D01*
X7695446Y-15078502D01*
X7676399Y-15068978D01*
X7638303Y-15068978D01*
X7619256Y-15078502D01*
X7704970Y-15192787D02*
X7685923Y-15202311D01*
X7638303Y-15202311D01*
X7619256Y-15192787D01*
X7609732Y-15173740D01*
X7609732Y-15154692D01*
X7619256Y-15135644D01*
X7638303Y-15126121D01*
X7685923Y-15126121D01*
X7704970Y-15116597D01*
X7771637Y-15068978D02*
X7847827Y-15068978D01*
X7800208Y-15002311D02*
X7800208Y-15173740D01*
X7809732Y-15192787D01*
X7828780Y-15202311D01*
X7847827Y-15202311D01*
X7990684Y-15192787D02*
X7971637Y-15202311D01*
X7933542Y-15202311D01*
X7914494Y-15192787D01*
X7904970Y-15173740D01*
X7904970Y-15097549D01*
X7914494Y-15078502D01*
X7933542Y-15068978D01*
X7971637Y-15068978D01*
X7990684Y-15078502D01*
X8000208Y-15097549D01*
X8000208Y-15116597D01*
X7904970Y-15135644D01*
X8171637Y-15202311D02*
X8171637Y-15002311D01*
X8171637Y-15192787D02*
X8152589Y-15202311D01*
X8114494Y-15202311D01*
X8095446Y-15192787D01*
X8085923Y-15183263D01*
X8076399Y-15164216D01*
X8076399Y-15107073D01*
X8085923Y-15088025D01*
X8095446Y-15078502D01*
X8114494Y-15068978D01*
X8152589Y-15068978D01*
X8171637Y-15078502D01*
X8247827Y-15278502D02*
X8257351Y-15268978D01*
X8276399Y-15240406D01*
X8285923Y-15221359D01*
X8295446Y-15192787D01*
X8304970Y-15145168D01*
X8304970Y-15107073D01*
X8295446Y-15059454D01*
X8285923Y-15030883D01*
X8276399Y-15011835D01*
X8257351Y-14983263D01*
X8247827Y-14973740D01*
D13*
X1656875Y-15375835D02*
G75*
G03*
X1656875Y-15375835I-87500J0D01*
G01*
D11*
X2019256Y-15466311D02*
X1904970Y-15466311D01*
X1962113Y-15466311D02*
X1962113Y-15266311D01*
X1943065Y-15294883D01*
X1924018Y-15313930D01*
X1904970Y-15323454D01*
X2104970Y-15447263D02*
X2114494Y-15456787D01*
X2104970Y-15466311D01*
X2095446Y-15456787D01*
X2104970Y-15447263D01*
X2104970Y-15466311D01*
X2181161Y-15266311D02*
X2314494Y-15266311D01*
X2228780Y-15466311D01*
X2485923Y-15266311D02*
X2390685Y-15266311D01*
X2381161Y-15361549D01*
X2390685Y-15352025D01*
X2409732Y-15342502D01*
X2457351Y-15342502D01*
X2476399Y-15352025D01*
X2485923Y-15361549D01*
X2495446Y-15380597D01*
X2495446Y-15428216D01*
X2485923Y-15447263D01*
X2476399Y-15456787D01*
X2457351Y-15466311D01*
X2409732Y-15466311D01*
X2390685Y-15456787D01*
X2381161Y-15447263D01*
X2619256Y-15266311D02*
X2638304Y-15266311D01*
X2657351Y-15275835D01*
X2666875Y-15285359D01*
X2676399Y-15304406D01*
X2685923Y-15342502D01*
X2685923Y-15390121D01*
X2676399Y-15428216D01*
X2666875Y-15447263D01*
X2657351Y-15456787D01*
X2638304Y-15466311D01*
X2619256Y-15466311D01*
X2600208Y-15456787D01*
X2590685Y-15447263D01*
X2581161Y-15428216D01*
X2571637Y-15390121D01*
X2571637Y-15342502D01*
X2581161Y-15304406D01*
X2590685Y-15285359D01*
X2600208Y-15275835D01*
X2619256Y-15266311D01*
X2771637Y-15466311D02*
X2771637Y-15332978D01*
X2771637Y-15352025D02*
X2781161Y-15342502D01*
X2800208Y-15332978D01*
X2828780Y-15332978D01*
X2847827Y-15342502D01*
X2857351Y-15361549D01*
X2857351Y-15466311D01*
X2857351Y-15361549D02*
X2866875Y-15342502D01*
X2885923Y-15332978D01*
X2914494Y-15332978D01*
X2933542Y-15342502D01*
X2943065Y-15361549D01*
X2943065Y-15466311D01*
X3038303Y-15466311D02*
X3038303Y-15332978D01*
X3038303Y-15352025D02*
X3047827Y-15342502D01*
X3066875Y-15332978D01*
X3095446Y-15332978D01*
X3114494Y-15342502D01*
X3124018Y-15361549D01*
X3124018Y-15466311D01*
X3124018Y-15361549D02*
X3133542Y-15342502D01*
X3152589Y-15332978D01*
X3181161Y-15332978D01*
X3200208Y-15342502D01*
X3209732Y-15361549D01*
X3209732Y-15466311D01*
X3600208Y-15256787D02*
X3428780Y-15513930D01*
X3857351Y-15266311D02*
X3876399Y-15266311D01*
X3895446Y-15275835D01*
X3904970Y-15285359D01*
X3914494Y-15304406D01*
X3924018Y-15342502D01*
X3924018Y-15390121D01*
X3914494Y-15428216D01*
X3904970Y-15447263D01*
X3895446Y-15456787D01*
X3876399Y-15466311D01*
X3857351Y-15466311D01*
X3838303Y-15456787D01*
X3828780Y-15447263D01*
X3819256Y-15428216D01*
X3809732Y-15390121D01*
X3809732Y-15342502D01*
X3819256Y-15304406D01*
X3828780Y-15285359D01*
X3838303Y-15275835D01*
X3857351Y-15266311D01*
X4009732Y-15447263D02*
X4019256Y-15456787D01*
X4009732Y-15466311D01*
X4000208Y-15456787D01*
X4009732Y-15447263D01*
X4009732Y-15466311D01*
X4143065Y-15266311D02*
X4162113Y-15266311D01*
X4181161Y-15275835D01*
X4190684Y-15285359D01*
X4200208Y-15304406D01*
X4209732Y-15342502D01*
X4209732Y-15390121D01*
X4200208Y-15428216D01*
X4190684Y-15447263D01*
X4181161Y-15456787D01*
X4162113Y-15466311D01*
X4143065Y-15466311D01*
X4124018Y-15456787D01*
X4114494Y-15447263D01*
X4104970Y-15428216D01*
X4095446Y-15390121D01*
X4095446Y-15342502D01*
X4104970Y-15304406D01*
X4114494Y-15285359D01*
X4124018Y-15275835D01*
X4143065Y-15266311D01*
X4381161Y-15266311D02*
X4343065Y-15266311D01*
X4324018Y-15275835D01*
X4314494Y-15285359D01*
X4295446Y-15313930D01*
X4285923Y-15352025D01*
X4285923Y-15428216D01*
X4295446Y-15447263D01*
X4304970Y-15456787D01*
X4324018Y-15466311D01*
X4362113Y-15466311D01*
X4381161Y-15456787D01*
X4390685Y-15447263D01*
X4400208Y-15428216D01*
X4400208Y-15380597D01*
X4390685Y-15361549D01*
X4381161Y-15352025D01*
X4362113Y-15342502D01*
X4324018Y-15342502D01*
X4304970Y-15352025D01*
X4295446Y-15361549D01*
X4285923Y-15380597D01*
X4514494Y-15352025D02*
X4495446Y-15342502D01*
X4485923Y-15332978D01*
X4476399Y-15313930D01*
X4476399Y-15304406D01*
X4485923Y-15285359D01*
X4495446Y-15275835D01*
X4514494Y-15266311D01*
X4552589Y-15266311D01*
X4571637Y-15275835D01*
X4581161Y-15285359D01*
X4590685Y-15304406D01*
X4590685Y-15313930D01*
X4581161Y-15332978D01*
X4571637Y-15342502D01*
X4552589Y-15352025D01*
X4514494Y-15352025D01*
X4495446Y-15361549D01*
X4485923Y-15371073D01*
X4476399Y-15390121D01*
X4476399Y-15428216D01*
X4485923Y-15447263D01*
X4495446Y-15456787D01*
X4514494Y-15466311D01*
X4552589Y-15466311D01*
X4571637Y-15456787D01*
X4581161Y-15447263D01*
X4590685Y-15428216D01*
X4590685Y-15390121D01*
X4581161Y-15371073D01*
X4571637Y-15361549D01*
X4552589Y-15352025D01*
X4685923Y-15466311D02*
X4724018Y-15466311D01*
X4743065Y-15456787D01*
X4752589Y-15447263D01*
X4771637Y-15418692D01*
X4781161Y-15380597D01*
X4781161Y-15304406D01*
X4771637Y-15285359D01*
X4762113Y-15275835D01*
X4743065Y-15266311D01*
X4704970Y-15266311D01*
X4685923Y-15275835D01*
X4676399Y-15285359D01*
X4666875Y-15304406D01*
X4666875Y-15352025D01*
X4676399Y-15371073D01*
X4685923Y-15380597D01*
X4704970Y-15390121D01*
X4743065Y-15390121D01*
X4762113Y-15380597D01*
X4771637Y-15371073D01*
X4781161Y-15352025D01*
X4857351Y-15266311D02*
X4857351Y-15304406D01*
X4933542Y-15266311D02*
X4933542Y-15304406D01*
X5228780Y-15542502D02*
X5219256Y-15532978D01*
X5200208Y-15504406D01*
X5190685Y-15485359D01*
X5181161Y-15456787D01*
X5171637Y-15409168D01*
X5171637Y-15371073D01*
X5181161Y-15323454D01*
X5190685Y-15294883D01*
X5200208Y-15275835D01*
X5219256Y-15247263D01*
X5228780Y-15237740D01*
X5409732Y-15466311D02*
X5295446Y-15466311D01*
X5352589Y-15466311D02*
X5352589Y-15266311D01*
X5333542Y-15294883D01*
X5314494Y-15313930D01*
X5295446Y-15323454D01*
X5600208Y-15466311D02*
X5485923Y-15466311D01*
X5543065Y-15466311D02*
X5543065Y-15266311D01*
X5524018Y-15294883D01*
X5504970Y-15313930D01*
X5485923Y-15323454D01*
X5771637Y-15332978D02*
X5771637Y-15466311D01*
X5724018Y-15256787D02*
X5676399Y-15399644D01*
X5800208Y-15399644D01*
X6028780Y-15466311D02*
X6028780Y-15266311D01*
X6114494Y-15466311D02*
X6114494Y-15361549D01*
X6104970Y-15342502D01*
X6085923Y-15332978D01*
X6057351Y-15332978D01*
X6038303Y-15342502D01*
X6028780Y-15352025D01*
X6238303Y-15466311D02*
X6219256Y-15456787D01*
X6209732Y-15447263D01*
X6200208Y-15428216D01*
X6200208Y-15371073D01*
X6209732Y-15352025D01*
X6219256Y-15342502D01*
X6238303Y-15332978D01*
X6266875Y-15332978D01*
X6285923Y-15342502D01*
X6295446Y-15352025D01*
X6304970Y-15371073D01*
X6304970Y-15428216D01*
X6295446Y-15447263D01*
X6285923Y-15456787D01*
X6266875Y-15466311D01*
X6238303Y-15466311D01*
X6419256Y-15466311D02*
X6400208Y-15456787D01*
X6390684Y-15437740D01*
X6390684Y-15266311D01*
X6571637Y-15456787D02*
X6552589Y-15466311D01*
X6514494Y-15466311D01*
X6495446Y-15456787D01*
X6485923Y-15437740D01*
X6485923Y-15361549D01*
X6495446Y-15342502D01*
X6514494Y-15332978D01*
X6552589Y-15332978D01*
X6571637Y-15342502D01*
X6581161Y-15361549D01*
X6581161Y-15380597D01*
X6485923Y-15399644D01*
X6657351Y-15456787D02*
X6676399Y-15466311D01*
X6714494Y-15466311D01*
X6733542Y-15456787D01*
X6743065Y-15437740D01*
X6743065Y-15428216D01*
X6733542Y-15409168D01*
X6714494Y-15399644D01*
X6685923Y-15399644D01*
X6666875Y-15390121D01*
X6657351Y-15371073D01*
X6657351Y-15361549D01*
X6666875Y-15342502D01*
X6685923Y-15332978D01*
X6714494Y-15332978D01*
X6733542Y-15342502D01*
X6809732Y-15542502D02*
X6819256Y-15532978D01*
X6838303Y-15504406D01*
X6847827Y-15485359D01*
X6857351Y-15456787D01*
X6866875Y-15409168D01*
X6866875Y-15371073D01*
X6857351Y-15323454D01*
X6847827Y-15294883D01*
X6838303Y-15275835D01*
X6819256Y-15247263D01*
X6809732Y-15237740D01*
X7171637Y-15542502D02*
X7162113Y-15532978D01*
X7143065Y-15504406D01*
X7133542Y-15485359D01*
X7124018Y-15456787D01*
X7114494Y-15409168D01*
X7114494Y-15371073D01*
X7124018Y-15323454D01*
X7133542Y-15294883D01*
X7143065Y-15275835D01*
X7162113Y-15247263D01*
X7171637Y-15237740D01*
X7247827Y-15332978D02*
X7247827Y-15466311D01*
X7247827Y-15352025D02*
X7257351Y-15342502D01*
X7276399Y-15332978D01*
X7304970Y-15332978D01*
X7324018Y-15342502D01*
X7333542Y-15361549D01*
X7333542Y-15466311D01*
X7457351Y-15466311D02*
X7438303Y-15456787D01*
X7428780Y-15447263D01*
X7419256Y-15428216D01*
X7419256Y-15371073D01*
X7428780Y-15352025D01*
X7438303Y-15342502D01*
X7457351Y-15332978D01*
X7485923Y-15332978D01*
X7504970Y-15342502D01*
X7514494Y-15352025D01*
X7524018Y-15371073D01*
X7524018Y-15428216D01*
X7514494Y-15447263D01*
X7504970Y-15456787D01*
X7485923Y-15466311D01*
X7457351Y-15466311D01*
X7581161Y-15332978D02*
X7657351Y-15332978D01*
X7609732Y-15266311D02*
X7609732Y-15437740D01*
X7619256Y-15456787D01*
X7638303Y-15466311D01*
X7657351Y-15466311D01*
X7876399Y-15332978D02*
X7876399Y-15532978D01*
X7876399Y-15342502D02*
X7895446Y-15332978D01*
X7933542Y-15332978D01*
X7952589Y-15342502D01*
X7962113Y-15352025D01*
X7971637Y-15371073D01*
X7971637Y-15428216D01*
X7962113Y-15447263D01*
X7952589Y-15456787D01*
X7933542Y-15466311D01*
X7895446Y-15466311D01*
X7876399Y-15456787D01*
X8085923Y-15466311D02*
X8066875Y-15456787D01*
X8057351Y-15437740D01*
X8057351Y-15266311D01*
X8247827Y-15466311D02*
X8247827Y-15361549D01*
X8238303Y-15342502D01*
X8219256Y-15332978D01*
X8181161Y-15332978D01*
X8162113Y-15342502D01*
X8247827Y-15456787D02*
X8228780Y-15466311D01*
X8181161Y-15466311D01*
X8162113Y-15456787D01*
X8152589Y-15437740D01*
X8152589Y-15418692D01*
X8162113Y-15399644D01*
X8181161Y-15390121D01*
X8228780Y-15390121D01*
X8247827Y-15380597D01*
X8314494Y-15332978D02*
X8390685Y-15332978D01*
X8343065Y-15266311D02*
X8343065Y-15437740D01*
X8352589Y-15456787D01*
X8371637Y-15466311D01*
X8390685Y-15466311D01*
X8533542Y-15456787D02*
X8514494Y-15466311D01*
X8476399Y-15466311D01*
X8457351Y-15456787D01*
X8447827Y-15437740D01*
X8447827Y-15361549D01*
X8457351Y-15342502D01*
X8476399Y-15332978D01*
X8514494Y-15332978D01*
X8533542Y-15342502D01*
X8543065Y-15361549D01*
X8543065Y-15380597D01*
X8447827Y-15399644D01*
X8714494Y-15466311D02*
X8714494Y-15266311D01*
X8714494Y-15456787D02*
X8695446Y-15466311D01*
X8657351Y-15466311D01*
X8638304Y-15456787D01*
X8628780Y-15447263D01*
X8619256Y-15428216D01*
X8619256Y-15371073D01*
X8628780Y-15352025D01*
X8638304Y-15342502D01*
X8657351Y-15332978D01*
X8695446Y-15332978D01*
X8714494Y-15342502D01*
X8790685Y-15542502D02*
X8800208Y-15532978D01*
X8819256Y-15504406D01*
X8828780Y-15485359D01*
X8838304Y-15456787D01*
X8847827Y-15409168D01*
X8847827Y-15371073D01*
X8838304Y-15323454D01*
X8828780Y-15294883D01*
X8819256Y-15275835D01*
X8800208Y-15247263D01*
X8790685Y-15237740D01*
X1556875Y-15570835D02*
X1556875Y-15770835D01*
X1456875Y-15670835D02*
X1656875Y-15670835D01*
X1895446Y-15561311D02*
X2019256Y-15561311D01*
X1952589Y-15637502D01*
X1981161Y-15637502D01*
X2000208Y-15647025D01*
X2009732Y-15656549D01*
X2019256Y-15675597D01*
X2019256Y-15723216D01*
X2009732Y-15742263D01*
X2000208Y-15751787D01*
X1981161Y-15761311D01*
X1924018Y-15761311D01*
X1904970Y-15751787D01*
X1895446Y-15742263D01*
X2104970Y-15742263D02*
X2114494Y-15751787D01*
X2104970Y-15761311D01*
X2095446Y-15751787D01*
X2104970Y-15742263D01*
X2104970Y-15761311D01*
X2238304Y-15561311D02*
X2257351Y-15561311D01*
X2276399Y-15570835D01*
X2285923Y-15580359D01*
X2295446Y-15599406D01*
X2304970Y-15637502D01*
X2304970Y-15685121D01*
X2295446Y-15723216D01*
X2285923Y-15742263D01*
X2276399Y-15751787D01*
X2257351Y-15761311D01*
X2238304Y-15761311D01*
X2219256Y-15751787D01*
X2209732Y-15742263D01*
X2200208Y-15723216D01*
X2190685Y-15685121D01*
X2190685Y-15637502D01*
X2200208Y-15599406D01*
X2209732Y-15580359D01*
X2219256Y-15570835D01*
X2238304Y-15561311D01*
X2428780Y-15561311D02*
X2447827Y-15561311D01*
X2466875Y-15570835D01*
X2476399Y-15580359D01*
X2485923Y-15599406D01*
X2495446Y-15637502D01*
X2495446Y-15685121D01*
X2485923Y-15723216D01*
X2476399Y-15742263D01*
X2466875Y-15751787D01*
X2447827Y-15761311D01*
X2428780Y-15761311D01*
X2409732Y-15751787D01*
X2400208Y-15742263D01*
X2390685Y-15723216D01*
X2381161Y-15685121D01*
X2381161Y-15637502D01*
X2390685Y-15599406D01*
X2400208Y-15580359D01*
X2409732Y-15570835D01*
X2428780Y-15561311D01*
X2619256Y-15561311D02*
X2638304Y-15561311D01*
X2657351Y-15570835D01*
X2666875Y-15580359D01*
X2676399Y-15599406D01*
X2685923Y-15637502D01*
X2685923Y-15685121D01*
X2676399Y-15723216D01*
X2666875Y-15742263D01*
X2657351Y-15751787D01*
X2638304Y-15761311D01*
X2619256Y-15761311D01*
X2600208Y-15751787D01*
X2590685Y-15742263D01*
X2581161Y-15723216D01*
X2571637Y-15685121D01*
X2571637Y-15637502D01*
X2581161Y-15599406D01*
X2590685Y-15580359D01*
X2600208Y-15570835D01*
X2619256Y-15561311D01*
X2771637Y-15761311D02*
X2771637Y-15627978D01*
X2771637Y-15647025D02*
X2781161Y-15637502D01*
X2800208Y-15627978D01*
X2828780Y-15627978D01*
X2847827Y-15637502D01*
X2857351Y-15656549D01*
X2857351Y-15761311D01*
X2857351Y-15656549D02*
X2866875Y-15637502D01*
X2885923Y-15627978D01*
X2914494Y-15627978D01*
X2933542Y-15637502D01*
X2943065Y-15656549D01*
X2943065Y-15761311D01*
X3038303Y-15761311D02*
X3038303Y-15627978D01*
X3038303Y-15647025D02*
X3047827Y-15637502D01*
X3066875Y-15627978D01*
X3095446Y-15627978D01*
X3114494Y-15637502D01*
X3124018Y-15656549D01*
X3124018Y-15761311D01*
X3124018Y-15656549D02*
X3133542Y-15637502D01*
X3152589Y-15627978D01*
X3181161Y-15627978D01*
X3200208Y-15637502D01*
X3209732Y-15656549D01*
X3209732Y-15761311D01*
X3600208Y-15551787D02*
X3428780Y-15808930D01*
X3857351Y-15561311D02*
X3876399Y-15561311D01*
X3895446Y-15570835D01*
X3904970Y-15580359D01*
X3914494Y-15599406D01*
X3924018Y-15637502D01*
X3924018Y-15685121D01*
X3914494Y-15723216D01*
X3904970Y-15742263D01*
X3895446Y-15751787D01*
X3876399Y-15761311D01*
X3857351Y-15761311D01*
X3838303Y-15751787D01*
X3828780Y-15742263D01*
X3819256Y-15723216D01*
X3809732Y-15685121D01*
X3809732Y-15637502D01*
X3819256Y-15599406D01*
X3828780Y-15580359D01*
X3838303Y-15570835D01*
X3857351Y-15561311D01*
X4009732Y-15742263D02*
X4019256Y-15751787D01*
X4009732Y-15761311D01*
X4000208Y-15751787D01*
X4009732Y-15742263D01*
X4009732Y-15761311D01*
X4209732Y-15761311D02*
X4095446Y-15761311D01*
X4152589Y-15761311D02*
X4152589Y-15561311D01*
X4133542Y-15589883D01*
X4114494Y-15608930D01*
X4095446Y-15618454D01*
X4400208Y-15761311D02*
X4285923Y-15761311D01*
X4343065Y-15761311D02*
X4343065Y-15561311D01*
X4324018Y-15589883D01*
X4304970Y-15608930D01*
X4285923Y-15618454D01*
X4514494Y-15647025D02*
X4495446Y-15637502D01*
X4485923Y-15627978D01*
X4476399Y-15608930D01*
X4476399Y-15599406D01*
X4485923Y-15580359D01*
X4495446Y-15570835D01*
X4514494Y-15561311D01*
X4552589Y-15561311D01*
X4571637Y-15570835D01*
X4581161Y-15580359D01*
X4590685Y-15599406D01*
X4590685Y-15608930D01*
X4581161Y-15627978D01*
X4571637Y-15637502D01*
X4552589Y-15647025D01*
X4514494Y-15647025D01*
X4495446Y-15656549D01*
X4485923Y-15666073D01*
X4476399Y-15685121D01*
X4476399Y-15723216D01*
X4485923Y-15742263D01*
X4495446Y-15751787D01*
X4514494Y-15761311D01*
X4552589Y-15761311D01*
X4571637Y-15751787D01*
X4581161Y-15742263D01*
X4590685Y-15723216D01*
X4590685Y-15685121D01*
X4581161Y-15666073D01*
X4571637Y-15656549D01*
X4552589Y-15647025D01*
X4781161Y-15761311D02*
X4666875Y-15761311D01*
X4724018Y-15761311D02*
X4724018Y-15561311D01*
X4704970Y-15589883D01*
X4685923Y-15608930D01*
X4666875Y-15618454D01*
X4857351Y-15561311D02*
X4857351Y-15599406D01*
X4933542Y-15561311D02*
X4933542Y-15599406D01*
X5228780Y-15837502D02*
X5219256Y-15827978D01*
X5200208Y-15799406D01*
X5190685Y-15780359D01*
X5181161Y-15751787D01*
X5171637Y-15704168D01*
X5171637Y-15666073D01*
X5181161Y-15618454D01*
X5190685Y-15589883D01*
X5200208Y-15570835D01*
X5219256Y-15542263D01*
X5228780Y-15532740D01*
X5409732Y-15761311D02*
X5295446Y-15761311D01*
X5352589Y-15761311D02*
X5352589Y-15561311D01*
X5333542Y-15589883D01*
X5314494Y-15608930D01*
X5295446Y-15618454D01*
X5600208Y-15761311D02*
X5485923Y-15761311D01*
X5543065Y-15761311D02*
X5543065Y-15561311D01*
X5524018Y-15589883D01*
X5504970Y-15608930D01*
X5485923Y-15618454D01*
X5771637Y-15627978D02*
X5771637Y-15761311D01*
X5724018Y-15551787D02*
X5676399Y-15694644D01*
X5800208Y-15694644D01*
X6028780Y-15761311D02*
X6028780Y-15561311D01*
X6114494Y-15761311D02*
X6114494Y-15656549D01*
X6104970Y-15637502D01*
X6085923Y-15627978D01*
X6057351Y-15627978D01*
X6038303Y-15637502D01*
X6028780Y-15647025D01*
X6238303Y-15761311D02*
X6219256Y-15751787D01*
X6209732Y-15742263D01*
X6200208Y-15723216D01*
X6200208Y-15666073D01*
X6209732Y-15647025D01*
X6219256Y-15637502D01*
X6238303Y-15627978D01*
X6266875Y-15627978D01*
X6285923Y-15637502D01*
X6295446Y-15647025D01*
X6304970Y-15666073D01*
X6304970Y-15723216D01*
X6295446Y-15742263D01*
X6285923Y-15751787D01*
X6266875Y-15761311D01*
X6238303Y-15761311D01*
X6419256Y-15761311D02*
X6400208Y-15751787D01*
X6390684Y-15732740D01*
X6390684Y-15561311D01*
X6571637Y-15751787D02*
X6552589Y-15761311D01*
X6514494Y-15761311D01*
X6495446Y-15751787D01*
X6485923Y-15732740D01*
X6485923Y-15656549D01*
X6495446Y-15637502D01*
X6514494Y-15627978D01*
X6552589Y-15627978D01*
X6571637Y-15637502D01*
X6581161Y-15656549D01*
X6581161Y-15675597D01*
X6485923Y-15694644D01*
X6657351Y-15751787D02*
X6676399Y-15761311D01*
X6714494Y-15761311D01*
X6733542Y-15751787D01*
X6743065Y-15732740D01*
X6743065Y-15723216D01*
X6733542Y-15704168D01*
X6714494Y-15694644D01*
X6685923Y-15694644D01*
X6666875Y-15685121D01*
X6657351Y-15666073D01*
X6657351Y-15656549D01*
X6666875Y-15637502D01*
X6685923Y-15627978D01*
X6714494Y-15627978D01*
X6733542Y-15637502D01*
X6809732Y-15837502D02*
X6819256Y-15827978D01*
X6838303Y-15799406D01*
X6847827Y-15780359D01*
X6857351Y-15751787D01*
X6866875Y-15704168D01*
X6866875Y-15666073D01*
X6857351Y-15618454D01*
X6847827Y-15589883D01*
X6838303Y-15570835D01*
X6819256Y-15542263D01*
X6809732Y-15532740D01*
X7171637Y-15837502D02*
X7162113Y-15827978D01*
X7143065Y-15799406D01*
X7133542Y-15780359D01*
X7124018Y-15751787D01*
X7114494Y-15704168D01*
X7114494Y-15666073D01*
X7124018Y-15618454D01*
X7133542Y-15589883D01*
X7143065Y-15570835D01*
X7162113Y-15542263D01*
X7171637Y-15532740D01*
X7247827Y-15627978D02*
X7247827Y-15761311D01*
X7247827Y-15647025D02*
X7257351Y-15637502D01*
X7276399Y-15627978D01*
X7304970Y-15627978D01*
X7324018Y-15637502D01*
X7333542Y-15656549D01*
X7333542Y-15761311D01*
X7457351Y-15761311D02*
X7438303Y-15751787D01*
X7428780Y-15742263D01*
X7419256Y-15723216D01*
X7419256Y-15666073D01*
X7428780Y-15647025D01*
X7438303Y-15637502D01*
X7457351Y-15627978D01*
X7485923Y-15627978D01*
X7504970Y-15637502D01*
X7514494Y-15647025D01*
X7524018Y-15666073D01*
X7524018Y-15723216D01*
X7514494Y-15742263D01*
X7504970Y-15751787D01*
X7485923Y-15761311D01*
X7457351Y-15761311D01*
X7581161Y-15627978D02*
X7657351Y-15627978D01*
X7609732Y-15561311D02*
X7609732Y-15732740D01*
X7619256Y-15751787D01*
X7638303Y-15761311D01*
X7657351Y-15761311D01*
X7876399Y-15627978D02*
X7876399Y-15827978D01*
X7876399Y-15637502D02*
X7895446Y-15627978D01*
X7933542Y-15627978D01*
X7952589Y-15637502D01*
X7962113Y-15647025D01*
X7971637Y-15666073D01*
X7971637Y-15723216D01*
X7962113Y-15742263D01*
X7952589Y-15751787D01*
X7933542Y-15761311D01*
X7895446Y-15761311D01*
X7876399Y-15751787D01*
X8085923Y-15761311D02*
X8066875Y-15751787D01*
X8057351Y-15732740D01*
X8057351Y-15561311D01*
X8247827Y-15761311D02*
X8247827Y-15656549D01*
X8238303Y-15637502D01*
X8219256Y-15627978D01*
X8181161Y-15627978D01*
X8162113Y-15637502D01*
X8247827Y-15751787D02*
X8228780Y-15761311D01*
X8181161Y-15761311D01*
X8162113Y-15751787D01*
X8152589Y-15732740D01*
X8152589Y-15713692D01*
X8162113Y-15694644D01*
X8181161Y-15685121D01*
X8228780Y-15685121D01*
X8247827Y-15675597D01*
X8314494Y-15627978D02*
X8390685Y-15627978D01*
X8343065Y-15561311D02*
X8343065Y-15732740D01*
X8352589Y-15751787D01*
X8371637Y-15761311D01*
X8390685Y-15761311D01*
X8533542Y-15751787D02*
X8514494Y-15761311D01*
X8476399Y-15761311D01*
X8457351Y-15751787D01*
X8447827Y-15732740D01*
X8447827Y-15656549D01*
X8457351Y-15637502D01*
X8476399Y-15627978D01*
X8514494Y-15627978D01*
X8533542Y-15637502D01*
X8543065Y-15656549D01*
X8543065Y-15675597D01*
X8447827Y-15694644D01*
X8714494Y-15761311D02*
X8714494Y-15561311D01*
X8714494Y-15751787D02*
X8695446Y-15761311D01*
X8657351Y-15761311D01*
X8638304Y-15751787D01*
X8628780Y-15742263D01*
X8619256Y-15723216D01*
X8619256Y-15666073D01*
X8628780Y-15647025D01*
X8638304Y-15637502D01*
X8657351Y-15627978D01*
X8695446Y-15627978D01*
X8714494Y-15637502D01*
X8790685Y-15837502D02*
X8800208Y-15827978D01*
X8819256Y-15799406D01*
X8828780Y-15780359D01*
X8838304Y-15751787D01*
X8847827Y-15704168D01*
X8847827Y-15666073D01*
X8838304Y-15618454D01*
X8828780Y-15589883D01*
X8819256Y-15570835D01*
X8800208Y-15542263D01*
X8790685Y-15532740D01*
X1627586Y-16061546D02*
X1627586Y-15920124D01*
X1486164Y-15920124D01*
X1486164Y-16061546D01*
X1627586Y-16061546D01*
X1895446Y-15881311D02*
X2019256Y-15881311D01*
X1952589Y-15957502D01*
X1981161Y-15957502D01*
X2000208Y-15967025D01*
X2009732Y-15976549D01*
X2019256Y-15995597D01*
X2019256Y-16043216D01*
X2009732Y-16062263D01*
X2000208Y-16071787D01*
X1981161Y-16081311D01*
X1924018Y-16081311D01*
X1904970Y-16071787D01*
X1895446Y-16062263D01*
X2104970Y-16062263D02*
X2114494Y-16071787D01*
X2104970Y-16081311D01*
X2095446Y-16071787D01*
X2104970Y-16062263D01*
X2104970Y-16081311D01*
X2238304Y-15881311D02*
X2257351Y-15881311D01*
X2276399Y-15890835D01*
X2285923Y-15900359D01*
X2295446Y-15919406D01*
X2304970Y-15957502D01*
X2304970Y-16005121D01*
X2295446Y-16043216D01*
X2285923Y-16062263D01*
X2276399Y-16071787D01*
X2257351Y-16081311D01*
X2238304Y-16081311D01*
X2219256Y-16071787D01*
X2209732Y-16062263D01*
X2200208Y-16043216D01*
X2190685Y-16005121D01*
X2190685Y-15957502D01*
X2200208Y-15919406D01*
X2209732Y-15900359D01*
X2219256Y-15890835D01*
X2238304Y-15881311D01*
X2476399Y-15947978D02*
X2476399Y-16081311D01*
X2428780Y-15871787D02*
X2381161Y-16014644D01*
X2504970Y-16014644D01*
X2609732Y-15967025D02*
X2590685Y-15957502D01*
X2581161Y-15947978D01*
X2571637Y-15928930D01*
X2571637Y-15919406D01*
X2581161Y-15900359D01*
X2590685Y-15890835D01*
X2609732Y-15881311D01*
X2647827Y-15881311D01*
X2666875Y-15890835D01*
X2676399Y-15900359D01*
X2685923Y-15919406D01*
X2685923Y-15928930D01*
X2676399Y-15947978D01*
X2666875Y-15957502D01*
X2647827Y-15967025D01*
X2609732Y-15967025D01*
X2590685Y-15976549D01*
X2581161Y-15986073D01*
X2571637Y-16005121D01*
X2571637Y-16043216D01*
X2581161Y-16062263D01*
X2590685Y-16071787D01*
X2609732Y-16081311D01*
X2647827Y-16081311D01*
X2666875Y-16071787D01*
X2676399Y-16062263D01*
X2685923Y-16043216D01*
X2685923Y-16005121D01*
X2676399Y-15986073D01*
X2666875Y-15976549D01*
X2647827Y-15967025D01*
X2771637Y-16081311D02*
X2771637Y-15947978D01*
X2771637Y-15967025D02*
X2781161Y-15957502D01*
X2800208Y-15947978D01*
X2828780Y-15947978D01*
X2847827Y-15957502D01*
X2857351Y-15976549D01*
X2857351Y-16081311D01*
X2857351Y-15976549D02*
X2866875Y-15957502D01*
X2885923Y-15947978D01*
X2914494Y-15947978D01*
X2933542Y-15957502D01*
X2943065Y-15976549D01*
X2943065Y-16081311D01*
X3038303Y-16081311D02*
X3038303Y-15947978D01*
X3038303Y-15967025D02*
X3047827Y-15957502D01*
X3066875Y-15947978D01*
X3095446Y-15947978D01*
X3114494Y-15957502D01*
X3124018Y-15976549D01*
X3124018Y-16081311D01*
X3124018Y-15976549D02*
X3133542Y-15957502D01*
X3152589Y-15947978D01*
X3181161Y-15947978D01*
X3200208Y-15957502D01*
X3209732Y-15976549D01*
X3209732Y-16081311D01*
X3600208Y-15871787D02*
X3428780Y-16128930D01*
X3857351Y-15881311D02*
X3876399Y-15881311D01*
X3895446Y-15890835D01*
X3904970Y-15900359D01*
X3914494Y-15919406D01*
X3924018Y-15957502D01*
X3924018Y-16005121D01*
X3914494Y-16043216D01*
X3904970Y-16062263D01*
X3895446Y-16071787D01*
X3876399Y-16081311D01*
X3857351Y-16081311D01*
X3838303Y-16071787D01*
X3828780Y-16062263D01*
X3819256Y-16043216D01*
X3809732Y-16005121D01*
X3809732Y-15957502D01*
X3819256Y-15919406D01*
X3828780Y-15900359D01*
X3838303Y-15890835D01*
X3857351Y-15881311D01*
X4009732Y-16062263D02*
X4019256Y-16071787D01*
X4009732Y-16081311D01*
X4000208Y-16071787D01*
X4009732Y-16062263D01*
X4009732Y-16081311D01*
X4209732Y-16081311D02*
X4095446Y-16081311D01*
X4152589Y-16081311D02*
X4152589Y-15881311D01*
X4133542Y-15909883D01*
X4114494Y-15928930D01*
X4095446Y-15938454D01*
X4285923Y-15900359D02*
X4295446Y-15890835D01*
X4314494Y-15881311D01*
X4362113Y-15881311D01*
X4381161Y-15890835D01*
X4390685Y-15900359D01*
X4400208Y-15919406D01*
X4400208Y-15938454D01*
X4390685Y-15967025D01*
X4276399Y-16081311D01*
X4400208Y-16081311D01*
X4524018Y-15881311D02*
X4543065Y-15881311D01*
X4562113Y-15890835D01*
X4571637Y-15900359D01*
X4581161Y-15919406D01*
X4590685Y-15957502D01*
X4590685Y-16005121D01*
X4581161Y-16043216D01*
X4571637Y-16062263D01*
X4562113Y-16071787D01*
X4543065Y-16081311D01*
X4524018Y-16081311D01*
X4504970Y-16071787D01*
X4495446Y-16062263D01*
X4485923Y-16043216D01*
X4476399Y-16005121D01*
X4476399Y-15957502D01*
X4485923Y-15919406D01*
X4495446Y-15900359D01*
X4504970Y-15890835D01*
X4524018Y-15881311D01*
X4714494Y-15881311D02*
X4733542Y-15881311D01*
X4752589Y-15890835D01*
X4762113Y-15900359D01*
X4771637Y-15919406D01*
X4781161Y-15957502D01*
X4781161Y-16005121D01*
X4771637Y-16043216D01*
X4762113Y-16062263D01*
X4752589Y-16071787D01*
X4733542Y-16081311D01*
X4714494Y-16081311D01*
X4695446Y-16071787D01*
X4685923Y-16062263D01*
X4676399Y-16043216D01*
X4666875Y-16005121D01*
X4666875Y-15957502D01*
X4676399Y-15919406D01*
X4685923Y-15900359D01*
X4695446Y-15890835D01*
X4714494Y-15881311D01*
X4857351Y-15881311D02*
X4857351Y-15919406D01*
X4933542Y-15881311D02*
X4933542Y-15919406D01*
X5228780Y-16157502D02*
X5219256Y-16147978D01*
X5200208Y-16119406D01*
X5190685Y-16100359D01*
X5181161Y-16071787D01*
X5171637Y-16024168D01*
X5171637Y-15986073D01*
X5181161Y-15938454D01*
X5190685Y-15909883D01*
X5200208Y-15890835D01*
X5219256Y-15862263D01*
X5228780Y-15852740D01*
X5409732Y-16081311D02*
X5295446Y-16081311D01*
X5352589Y-16081311D02*
X5352589Y-15881311D01*
X5333542Y-15909883D01*
X5314494Y-15928930D01*
X5295446Y-15938454D01*
X5581161Y-15947978D02*
X5581161Y-16081311D01*
X5533542Y-15871787D02*
X5485923Y-16014644D01*
X5609732Y-16014644D01*
X5838303Y-16081311D02*
X5838303Y-15881311D01*
X5924018Y-16081311D02*
X5924018Y-15976549D01*
X5914494Y-15957502D01*
X5895446Y-15947978D01*
X5866875Y-15947978D01*
X5847827Y-15957502D01*
X5838303Y-15967025D01*
X6047827Y-16081311D02*
X6028780Y-16071787D01*
X6019256Y-16062263D01*
X6009732Y-16043216D01*
X6009732Y-15986073D01*
X6019256Y-15967025D01*
X6028780Y-15957502D01*
X6047827Y-15947978D01*
X6076399Y-15947978D01*
X6095446Y-15957502D01*
X6104970Y-15967025D01*
X6114494Y-15986073D01*
X6114494Y-16043216D01*
X6104970Y-16062263D01*
X6095446Y-16071787D01*
X6076399Y-16081311D01*
X6047827Y-16081311D01*
X6228780Y-16081311D02*
X6209732Y-16071787D01*
X6200208Y-16052740D01*
X6200208Y-15881311D01*
X6381161Y-16071787D02*
X6362113Y-16081311D01*
X6324018Y-16081311D01*
X6304970Y-16071787D01*
X6295446Y-16052740D01*
X6295446Y-15976549D01*
X6304970Y-15957502D01*
X6324018Y-15947978D01*
X6362113Y-15947978D01*
X6381161Y-15957502D01*
X6390684Y-15976549D01*
X6390684Y-15995597D01*
X6295446Y-16014644D01*
X6466875Y-16071787D02*
X6485923Y-16081311D01*
X6524018Y-16081311D01*
X6543065Y-16071787D01*
X6552589Y-16052740D01*
X6552589Y-16043216D01*
X6543065Y-16024168D01*
X6524018Y-16014644D01*
X6495446Y-16014644D01*
X6476399Y-16005121D01*
X6466875Y-15986073D01*
X6466875Y-15976549D01*
X6476399Y-15957502D01*
X6495446Y-15947978D01*
X6524018Y-15947978D01*
X6543065Y-15957502D01*
X6619256Y-16157502D02*
X6628780Y-16147978D01*
X6647827Y-16119406D01*
X6657351Y-16100359D01*
X6666875Y-16071787D01*
X6676399Y-16024168D01*
X6676399Y-15986073D01*
X6666875Y-15938454D01*
X6657351Y-15909883D01*
X6647827Y-15890835D01*
X6628780Y-15862263D01*
X6619256Y-15852740D01*
X6981161Y-16157502D02*
X6971637Y-16147978D01*
X6952589Y-16119406D01*
X6943065Y-16100359D01*
X6933542Y-16071787D01*
X6924018Y-16024168D01*
X6924018Y-15986073D01*
X6933542Y-15938454D01*
X6943065Y-15909883D01*
X6952589Y-15890835D01*
X6971637Y-15862263D01*
X6981161Y-15852740D01*
X7057351Y-15947978D02*
X7057351Y-16081311D01*
X7057351Y-15967025D02*
X7066875Y-15957502D01*
X7085923Y-15947978D01*
X7114494Y-15947978D01*
X7133542Y-15957502D01*
X7143065Y-15976549D01*
X7143065Y-16081311D01*
X7266875Y-16081311D02*
X7247827Y-16071787D01*
X7238303Y-16062263D01*
X7228780Y-16043216D01*
X7228780Y-15986073D01*
X7238303Y-15967025D01*
X7247827Y-15957502D01*
X7266875Y-15947978D01*
X7295446Y-15947978D01*
X7314494Y-15957502D01*
X7324018Y-15967025D01*
X7333542Y-15986073D01*
X7333542Y-16043216D01*
X7324018Y-16062263D01*
X7314494Y-16071787D01*
X7295446Y-16081311D01*
X7266875Y-16081311D01*
X7390684Y-15947978D02*
X7466875Y-15947978D01*
X7419256Y-15881311D02*
X7419256Y-16052740D01*
X7428780Y-16071787D01*
X7447827Y-16081311D01*
X7466875Y-16081311D01*
X7685923Y-15947978D02*
X7685923Y-16147978D01*
X7685923Y-15957502D02*
X7704970Y-15947978D01*
X7743065Y-15947978D01*
X7762113Y-15957502D01*
X7771637Y-15967025D01*
X7781161Y-15986073D01*
X7781161Y-16043216D01*
X7771637Y-16062263D01*
X7762113Y-16071787D01*
X7743065Y-16081311D01*
X7704970Y-16081311D01*
X7685923Y-16071787D01*
X7895446Y-16081311D02*
X7876399Y-16071787D01*
X7866875Y-16052740D01*
X7866875Y-15881311D01*
X8057351Y-16081311D02*
X8057351Y-15976549D01*
X8047827Y-15957502D01*
X8028780Y-15947978D01*
X7990684Y-15947978D01*
X7971637Y-15957502D01*
X8057351Y-16071787D02*
X8038303Y-16081311D01*
X7990684Y-16081311D01*
X7971637Y-16071787D01*
X7962113Y-16052740D01*
X7962113Y-16033692D01*
X7971637Y-16014644D01*
X7990684Y-16005121D01*
X8038303Y-16005121D01*
X8057351Y-15995597D01*
X8124018Y-15947978D02*
X8200208Y-15947978D01*
X8152589Y-15881311D02*
X8152589Y-16052740D01*
X8162113Y-16071787D01*
X8181161Y-16081311D01*
X8200208Y-16081311D01*
X8343065Y-16071787D02*
X8324018Y-16081311D01*
X8285923Y-16081311D01*
X8266875Y-16071787D01*
X8257351Y-16052740D01*
X8257351Y-15976549D01*
X8266875Y-15957502D01*
X8285923Y-15947978D01*
X8324018Y-15947978D01*
X8343065Y-15957502D01*
X8352589Y-15976549D01*
X8352589Y-15995597D01*
X8257351Y-16014644D01*
X8524018Y-16081311D02*
X8524018Y-15881311D01*
X8524018Y-16071787D02*
X8504970Y-16081311D01*
X8466875Y-16081311D01*
X8447827Y-16071787D01*
X8438304Y-16062263D01*
X8428780Y-16043216D01*
X8428780Y-15986073D01*
X8438304Y-15967025D01*
X8447827Y-15957502D01*
X8466875Y-15947978D01*
X8504970Y-15947978D01*
X8524018Y-15957502D01*
X8600208Y-16157502D02*
X8609732Y-16147978D01*
X8628780Y-16119406D01*
X8638304Y-16100359D01*
X8647827Y-16071787D01*
X8657351Y-16024168D01*
X8657351Y-15986073D01*
X8647827Y-15938454D01*
X8638304Y-15909883D01*
X8628780Y-15890835D01*
X8609732Y-15862263D01*
X8600208Y-15852740D01*
X1556875Y-16410835D02*
X1656875Y-16310835D01*
X1556875Y-16210835D01*
X1456875Y-16310835D01*
X1556875Y-16410835D01*
X1895446Y-16201311D02*
X2019256Y-16201311D01*
X1952589Y-16277502D01*
X1981161Y-16277502D01*
X2000208Y-16287025D01*
X2009732Y-16296549D01*
X2019256Y-16315597D01*
X2019256Y-16363216D01*
X2009732Y-16382263D01*
X2000208Y-16391787D01*
X1981161Y-16401311D01*
X1924018Y-16401311D01*
X1904970Y-16391787D01*
X1895446Y-16382263D01*
X2104970Y-16382263D02*
X2114494Y-16391787D01*
X2104970Y-16401311D01*
X2095446Y-16391787D01*
X2104970Y-16382263D01*
X2104970Y-16401311D01*
X2209732Y-16401311D02*
X2247827Y-16401311D01*
X2266875Y-16391787D01*
X2276399Y-16382263D01*
X2295446Y-16353692D01*
X2304970Y-16315597D01*
X2304970Y-16239406D01*
X2295446Y-16220359D01*
X2285923Y-16210835D01*
X2266875Y-16201311D01*
X2228780Y-16201311D01*
X2209732Y-16210835D01*
X2200208Y-16220359D01*
X2190685Y-16239406D01*
X2190685Y-16287025D01*
X2200208Y-16306073D01*
X2209732Y-16315597D01*
X2228780Y-16325121D01*
X2266875Y-16325121D01*
X2285923Y-16315597D01*
X2295446Y-16306073D01*
X2304970Y-16287025D01*
X2419256Y-16287025D02*
X2400208Y-16277502D01*
X2390685Y-16267978D01*
X2381161Y-16248930D01*
X2381161Y-16239406D01*
X2390685Y-16220359D01*
X2400208Y-16210835D01*
X2419256Y-16201311D01*
X2457351Y-16201311D01*
X2476399Y-16210835D01*
X2485923Y-16220359D01*
X2495446Y-16239406D01*
X2495446Y-16248930D01*
X2485923Y-16267978D01*
X2476399Y-16277502D01*
X2457351Y-16287025D01*
X2419256Y-16287025D01*
X2400208Y-16296549D01*
X2390685Y-16306073D01*
X2381161Y-16325121D01*
X2381161Y-16363216D01*
X2390685Y-16382263D01*
X2400208Y-16391787D01*
X2419256Y-16401311D01*
X2457351Y-16401311D01*
X2476399Y-16391787D01*
X2485923Y-16382263D01*
X2495446Y-16363216D01*
X2495446Y-16325121D01*
X2485923Y-16306073D01*
X2476399Y-16296549D01*
X2457351Y-16287025D01*
X2609732Y-16287025D02*
X2590685Y-16277502D01*
X2581161Y-16267978D01*
X2571637Y-16248930D01*
X2571637Y-16239406D01*
X2581161Y-16220359D01*
X2590685Y-16210835D01*
X2609732Y-16201311D01*
X2647827Y-16201311D01*
X2666875Y-16210835D01*
X2676399Y-16220359D01*
X2685923Y-16239406D01*
X2685923Y-16248930D01*
X2676399Y-16267978D01*
X2666875Y-16277502D01*
X2647827Y-16287025D01*
X2609732Y-16287025D01*
X2590685Y-16296549D01*
X2581161Y-16306073D01*
X2571637Y-16325121D01*
X2571637Y-16363216D01*
X2581161Y-16382263D01*
X2590685Y-16391787D01*
X2609732Y-16401311D01*
X2647827Y-16401311D01*
X2666875Y-16391787D01*
X2676399Y-16382263D01*
X2685923Y-16363216D01*
X2685923Y-16325121D01*
X2676399Y-16306073D01*
X2666875Y-16296549D01*
X2647827Y-16287025D01*
X2771637Y-16401311D02*
X2771637Y-16267978D01*
X2771637Y-16287025D02*
X2781161Y-16277502D01*
X2800208Y-16267978D01*
X2828780Y-16267978D01*
X2847827Y-16277502D01*
X2857351Y-16296549D01*
X2857351Y-16401311D01*
X2857351Y-16296549D02*
X2866875Y-16277502D01*
X2885923Y-16267978D01*
X2914494Y-16267978D01*
X2933542Y-16277502D01*
X2943065Y-16296549D01*
X2943065Y-16401311D01*
X3038303Y-16401311D02*
X3038303Y-16267978D01*
X3038303Y-16287025D02*
X3047827Y-16277502D01*
X3066875Y-16267978D01*
X3095446Y-16267978D01*
X3114494Y-16277502D01*
X3124018Y-16296549D01*
X3124018Y-16401311D01*
X3124018Y-16296549D02*
X3133542Y-16277502D01*
X3152589Y-16267978D01*
X3181161Y-16267978D01*
X3200208Y-16277502D01*
X3209732Y-16296549D01*
X3209732Y-16401311D01*
X3600208Y-16191787D02*
X3428780Y-16448930D01*
X3857351Y-16201311D02*
X3876399Y-16201311D01*
X3895446Y-16210835D01*
X3904970Y-16220359D01*
X3914494Y-16239406D01*
X3924018Y-16277502D01*
X3924018Y-16325121D01*
X3914494Y-16363216D01*
X3904970Y-16382263D01*
X3895446Y-16391787D01*
X3876399Y-16401311D01*
X3857351Y-16401311D01*
X3838303Y-16391787D01*
X3828780Y-16382263D01*
X3819256Y-16363216D01*
X3809732Y-16325121D01*
X3809732Y-16277502D01*
X3819256Y-16239406D01*
X3828780Y-16220359D01*
X3838303Y-16210835D01*
X3857351Y-16201311D01*
X4009732Y-16382263D02*
X4019256Y-16391787D01*
X4009732Y-16401311D01*
X4000208Y-16391787D01*
X4009732Y-16382263D01*
X4009732Y-16401311D01*
X4209732Y-16401311D02*
X4095446Y-16401311D01*
X4152589Y-16401311D02*
X4152589Y-16201311D01*
X4133542Y-16229883D01*
X4114494Y-16248930D01*
X4095446Y-16258454D01*
X4390685Y-16201311D02*
X4295446Y-16201311D01*
X4285923Y-16296549D01*
X4295446Y-16287025D01*
X4314494Y-16277502D01*
X4362113Y-16277502D01*
X4381161Y-16287025D01*
X4390685Y-16296549D01*
X4400208Y-16315597D01*
X4400208Y-16363216D01*
X4390685Y-16382263D01*
X4381161Y-16391787D01*
X4362113Y-16401311D01*
X4314494Y-16401311D01*
X4295446Y-16391787D01*
X4285923Y-16382263D01*
X4466875Y-16201311D02*
X4600208Y-16201311D01*
X4514494Y-16401311D01*
X4714494Y-16201311D02*
X4733542Y-16201311D01*
X4752589Y-16210835D01*
X4762113Y-16220359D01*
X4771637Y-16239406D01*
X4781161Y-16277502D01*
X4781161Y-16325121D01*
X4771637Y-16363216D01*
X4762113Y-16382263D01*
X4752589Y-16391787D01*
X4733542Y-16401311D01*
X4714494Y-16401311D01*
X4695446Y-16391787D01*
X4685923Y-16382263D01*
X4676399Y-16363216D01*
X4666875Y-16325121D01*
X4666875Y-16277502D01*
X4676399Y-16239406D01*
X4685923Y-16220359D01*
X4695446Y-16210835D01*
X4714494Y-16201311D01*
X4857351Y-16201311D02*
X4857351Y-16239406D01*
X4933542Y-16201311D02*
X4933542Y-16239406D01*
X5228780Y-16477502D02*
X5219256Y-16467978D01*
X5200208Y-16439406D01*
X5190685Y-16420359D01*
X5181161Y-16391787D01*
X5171637Y-16344168D01*
X5171637Y-16306073D01*
X5181161Y-16258454D01*
X5190685Y-16229883D01*
X5200208Y-16210835D01*
X5219256Y-16182263D01*
X5228780Y-16172740D01*
X5285923Y-16201311D02*
X5419256Y-16201311D01*
X5333542Y-16401311D01*
X5600208Y-16401311D02*
X5485923Y-16401311D01*
X5543065Y-16401311D02*
X5543065Y-16201311D01*
X5524018Y-16229883D01*
X5504970Y-16248930D01*
X5485923Y-16258454D01*
X5838303Y-16401311D02*
X5838303Y-16201311D01*
X5924018Y-16401311D02*
X5924018Y-16296549D01*
X5914494Y-16277502D01*
X5895446Y-16267978D01*
X5866875Y-16267978D01*
X5847827Y-16277502D01*
X5838303Y-16287025D01*
X6047827Y-16401311D02*
X6028780Y-16391787D01*
X6019256Y-16382263D01*
X6009732Y-16363216D01*
X6009732Y-16306073D01*
X6019256Y-16287025D01*
X6028780Y-16277502D01*
X6047827Y-16267978D01*
X6076399Y-16267978D01*
X6095446Y-16277502D01*
X6104970Y-16287025D01*
X6114494Y-16306073D01*
X6114494Y-16363216D01*
X6104970Y-16382263D01*
X6095446Y-16391787D01*
X6076399Y-16401311D01*
X6047827Y-16401311D01*
X6228780Y-16401311D02*
X6209732Y-16391787D01*
X6200208Y-16372740D01*
X6200208Y-16201311D01*
X6381161Y-16391787D02*
X6362113Y-16401311D01*
X6324018Y-16401311D01*
X6304970Y-16391787D01*
X6295446Y-16372740D01*
X6295446Y-16296549D01*
X6304970Y-16277502D01*
X6324018Y-16267978D01*
X6362113Y-16267978D01*
X6381161Y-16277502D01*
X6390684Y-16296549D01*
X6390684Y-16315597D01*
X6295446Y-16334644D01*
X6466875Y-16391787D02*
X6485923Y-16401311D01*
X6524018Y-16401311D01*
X6543065Y-16391787D01*
X6552589Y-16372740D01*
X6552589Y-16363216D01*
X6543065Y-16344168D01*
X6524018Y-16334644D01*
X6495446Y-16334644D01*
X6476399Y-16325121D01*
X6466875Y-16306073D01*
X6466875Y-16296549D01*
X6476399Y-16277502D01*
X6495446Y-16267978D01*
X6524018Y-16267978D01*
X6543065Y-16277502D01*
X6619256Y-16477502D02*
X6628780Y-16467978D01*
X6647827Y-16439406D01*
X6657351Y-16420359D01*
X6666875Y-16391787D01*
X6676399Y-16344168D01*
X6676399Y-16306073D01*
X6666875Y-16258454D01*
X6657351Y-16229883D01*
X6647827Y-16210835D01*
X6628780Y-16182263D01*
X6619256Y-16172740D01*
X6981161Y-16477502D02*
X6971637Y-16467978D01*
X6952589Y-16439406D01*
X6943065Y-16420359D01*
X6933542Y-16391787D01*
X6924018Y-16344168D01*
X6924018Y-16306073D01*
X6933542Y-16258454D01*
X6943065Y-16229883D01*
X6952589Y-16210835D01*
X6971637Y-16182263D01*
X6981161Y-16172740D01*
X7057351Y-16267978D02*
X7057351Y-16401311D01*
X7057351Y-16287025D02*
X7066875Y-16277502D01*
X7085923Y-16267978D01*
X7114494Y-16267978D01*
X7133542Y-16277502D01*
X7143065Y-16296549D01*
X7143065Y-16401311D01*
X7266875Y-16401311D02*
X7247827Y-16391787D01*
X7238303Y-16382263D01*
X7228780Y-16363216D01*
X7228780Y-16306073D01*
X7238303Y-16287025D01*
X7247827Y-16277502D01*
X7266875Y-16267978D01*
X7295446Y-16267978D01*
X7314494Y-16277502D01*
X7324018Y-16287025D01*
X7333542Y-16306073D01*
X7333542Y-16363216D01*
X7324018Y-16382263D01*
X7314494Y-16391787D01*
X7295446Y-16401311D01*
X7266875Y-16401311D01*
X7390684Y-16267978D02*
X7466875Y-16267978D01*
X7419256Y-16201311D02*
X7419256Y-16372740D01*
X7428780Y-16391787D01*
X7447827Y-16401311D01*
X7466875Y-16401311D01*
X7685923Y-16267978D02*
X7685923Y-16467978D01*
X7685923Y-16277502D02*
X7704970Y-16267978D01*
X7743065Y-16267978D01*
X7762113Y-16277502D01*
X7771637Y-16287025D01*
X7781161Y-16306073D01*
X7781161Y-16363216D01*
X7771637Y-16382263D01*
X7762113Y-16391787D01*
X7743065Y-16401311D01*
X7704970Y-16401311D01*
X7685923Y-16391787D01*
X7895446Y-16401311D02*
X7876399Y-16391787D01*
X7866875Y-16372740D01*
X7866875Y-16201311D01*
X8057351Y-16401311D02*
X8057351Y-16296549D01*
X8047827Y-16277502D01*
X8028780Y-16267978D01*
X7990684Y-16267978D01*
X7971637Y-16277502D01*
X8057351Y-16391787D02*
X8038303Y-16401311D01*
X7990684Y-16401311D01*
X7971637Y-16391787D01*
X7962113Y-16372740D01*
X7962113Y-16353692D01*
X7971637Y-16334644D01*
X7990684Y-16325121D01*
X8038303Y-16325121D01*
X8057351Y-16315597D01*
X8124018Y-16267978D02*
X8200208Y-16267978D01*
X8152589Y-16201311D02*
X8152589Y-16372740D01*
X8162113Y-16391787D01*
X8181161Y-16401311D01*
X8200208Y-16401311D01*
X8343065Y-16391787D02*
X8324018Y-16401311D01*
X8285923Y-16401311D01*
X8266875Y-16391787D01*
X8257351Y-16372740D01*
X8257351Y-16296549D01*
X8266875Y-16277502D01*
X8285923Y-16267978D01*
X8324018Y-16267978D01*
X8343065Y-16277502D01*
X8352589Y-16296549D01*
X8352589Y-16315597D01*
X8257351Y-16334644D01*
X8524018Y-16401311D02*
X8524018Y-16201311D01*
X8524018Y-16391787D02*
X8504970Y-16401311D01*
X8466875Y-16401311D01*
X8447827Y-16391787D01*
X8438304Y-16382263D01*
X8428780Y-16363216D01*
X8428780Y-16306073D01*
X8438304Y-16287025D01*
X8447827Y-16277502D01*
X8466875Y-16267978D01*
X8504970Y-16267978D01*
X8524018Y-16277502D01*
X8600208Y-16477502D02*
X8609732Y-16467978D01*
X8628780Y-16439406D01*
X8638304Y-16420359D01*
X8647827Y-16391787D01*
X8657351Y-16344168D01*
X8657351Y-16306073D01*
X8647827Y-16258454D01*
X8638304Y-16229883D01*
X8628780Y-16210835D01*
X8609732Y-16182263D01*
X8600208Y-16172740D01*
M02*
