G04 #@! TF.GenerationSoftware,KiCad,Pcbnew,(6.0.1-0)*
G04 #@! TF.CreationDate,2022-06-20T16:47:26-07:00*
G04 #@! TF.ProjectId,sketchy_v2,736b6574-6368-4795-9f76-322e6b696361,1*
G04 #@! TF.SameCoordinates,Original*
G04 #@! TF.FileFunction,Soldermask,Bot*
G04 #@! TF.FilePolarity,Negative*
%FSLAX46Y46*%
G04 Gerber Fmt 4.6, Leading zero omitted, Abs format (unit mm)*
G04 Created by KiCad (PCBNEW (6.0.1-0)) date 2022-06-20 16:47:26*
%MOMM*%
%LPD*%
G01*
G04 APERTURE LIST*
%ADD10R,1.700000X1.700000*%
%ADD11O,1.700000X1.700000*%
%ADD12R,2.000000X2.000000*%
%ADD13C,2.000000*%
%ADD14R,2.000000X3.200000*%
%ADD15R,1.752600X1.752600*%
%ADD16C,1.752600*%
%ADD17C,1.750000*%
%ADD18C,3.000000*%
%ADD19C,3.987800*%
%ADD20R,2.550000X2.500000*%
%ADD21C,3.048000*%
%ADD22R,2.500000X2.550000*%
%ADD23C,1.200000*%
%ADD24C,2.100000*%
%ADD25R,0.800000X1.900000*%
G04 APERTURE END LIST*
D10*
X255085750Y-121602500D03*
D11*
X255085750Y-124142500D03*
X255085750Y-126682500D03*
X255085750Y-129222500D03*
D12*
X274756250Y-127437500D03*
D13*
X269756250Y-127437500D03*
X272256250Y-127437500D03*
D14*
X277856250Y-134937500D03*
X266656250Y-134937500D03*
D13*
X269756250Y-141937500D03*
X274756250Y-141937500D03*
D12*
X27106250Y-127437500D03*
D13*
X22106250Y-127437500D03*
X24606250Y-127437500D03*
D14*
X30206250Y-134937500D03*
X19006250Y-134937500D03*
D13*
X22106250Y-141937500D03*
X27106250Y-141937500D03*
D10*
X77285750Y-121602500D03*
D11*
X77285750Y-124142500D03*
X77285750Y-126682500D03*
X77285750Y-129222500D03*
D15*
X140811250Y-32702500D03*
D16*
X140811250Y-35242500D03*
X140811250Y-37782500D03*
X140811250Y-40322500D03*
X140811250Y-42862500D03*
X140811250Y-45402500D03*
X140811250Y-47942500D03*
X140811250Y-50482500D03*
X140811250Y-53022500D03*
X140811250Y-55562500D03*
X140811250Y-58102500D03*
X140811250Y-60642500D03*
X156051250Y-60642500D03*
X156051250Y-58102500D03*
X156051250Y-55562500D03*
X156051250Y-53022500D03*
X156051250Y-50482500D03*
X156051250Y-47942500D03*
X156051250Y-45402500D03*
X156051250Y-42862500D03*
X156051250Y-40322500D03*
X156051250Y-37782500D03*
X156051250Y-35242500D03*
X156051250Y-32702500D03*
X143351250Y-60642500D03*
X145891250Y-60642500D03*
X148431250Y-60642500D03*
X150971250Y-60642500D03*
X153511250Y-60642500D03*
D17*
X120173750Y-106362500D03*
X110013750Y-106362500D03*
D18*
X117633750Y-101282500D03*
D19*
X115093750Y-106362500D03*
D18*
X111283750Y-103822500D03*
D20*
X108008750Y-103822500D03*
X120935750Y-101282500D03*
D17*
X148431250Y-130492500D03*
D21*
X205581250Y-132397500D03*
D18*
X143351250Y-122872500D03*
D19*
X148431250Y-125412500D03*
D21*
X91281250Y-132397500D03*
D19*
X205581250Y-117157500D03*
X91281250Y-117157500D03*
D17*
X148431250Y-120332500D03*
D18*
X145891250Y-129222500D03*
D22*
X145891250Y-132497500D03*
X143351250Y-119570500D03*
D17*
X201136250Y-68262500D03*
D18*
X198596250Y-63182500D03*
X192246250Y-65722500D03*
D19*
X196056250Y-68262500D03*
D17*
X190976250Y-68262500D03*
D20*
X188971250Y-65722500D03*
X201898250Y-63182500D03*
D17*
X152876250Y-68262500D03*
X163036250Y-68262500D03*
D18*
X155416250Y-73342500D03*
X161766250Y-70802500D03*
D19*
X157956250Y-68262500D03*
D20*
X165041250Y-70802500D03*
X152114250Y-73342500D03*
D17*
X148431250Y-44132500D03*
D18*
X145891250Y-53022500D03*
D19*
X148431250Y-49212500D03*
D17*
X148431250Y-54292500D03*
D18*
X143351250Y-46672500D03*
D22*
X145891250Y-56297500D03*
X143351250Y-43370500D03*
D18*
X116046250Y-65722500D03*
X122396250Y-63182500D03*
D19*
X119856250Y-68262500D03*
D17*
X114776250Y-68262500D03*
X124936250Y-68262500D03*
D20*
X112771250Y-65722500D03*
X125698250Y-63182500D03*
D18*
X42227500Y-103822500D03*
D21*
X57975500Y-99377500D03*
D19*
X57975500Y-114617500D03*
D17*
X40957500Y-106362500D03*
D19*
X46037500Y-106362500D03*
X34099500Y-114617500D03*
D18*
X48577500Y-101282500D03*
D21*
X34099500Y-99377500D03*
D17*
X51117500Y-106362500D03*
D20*
X38952500Y-103822500D03*
X51879500Y-101282500D03*
D18*
X55403750Y-111442500D03*
D19*
X57943750Y-106362500D03*
D18*
X61753750Y-108902500D03*
D17*
X52863750Y-106362500D03*
X63023750Y-106362500D03*
D20*
X65028750Y-108902500D03*
X52101750Y-111442500D03*
D17*
X81438750Y-87312500D03*
D19*
X86518750Y-87312500D03*
D18*
X89058750Y-82232500D03*
X82708750Y-84772500D03*
D17*
X91598750Y-87312500D03*
D20*
X79433750Y-84772500D03*
X92360750Y-82232500D03*
D17*
X67786250Y-68262500D03*
D18*
X58896250Y-65722500D03*
D17*
X57626250Y-68262500D03*
D18*
X65246250Y-63182500D03*
D19*
X62706250Y-68262500D03*
D20*
X55621250Y-65722500D03*
X68548250Y-63182500D03*
D18*
X170021250Y-44132500D03*
D19*
X167481250Y-49212500D03*
D18*
X163671250Y-46672500D03*
D17*
X162401250Y-49212500D03*
X172561250Y-49212500D03*
D20*
X160396250Y-46672500D03*
X173323250Y-44132500D03*
D21*
X241268250Y-42227500D03*
D17*
X258286250Y-49212500D03*
X248126250Y-49212500D03*
D18*
X249396250Y-46672500D03*
X255746250Y-44132500D03*
D21*
X265144250Y-42227500D03*
D19*
X241268250Y-57467500D03*
X253206250Y-49212500D03*
X265144250Y-57467500D03*
D20*
X246121250Y-46672500D03*
X259048250Y-44132500D03*
D19*
X88868250Y-117157500D03*
D18*
X96996250Y-122872500D03*
X103346250Y-120332500D03*
D21*
X112744250Y-132397500D03*
D19*
X100806250Y-125412500D03*
D21*
X88868250Y-132397500D03*
D17*
X105886250Y-125412500D03*
D19*
X112744250Y-117157500D03*
D17*
X95726250Y-125412500D03*
D20*
X93721250Y-122872500D03*
X106648250Y-120332500D03*
D18*
X187483750Y-103822500D03*
D17*
X196373750Y-106362500D03*
D19*
X191293750Y-106362500D03*
D17*
X186213750Y-106362500D03*
D18*
X193833750Y-101282500D03*
D20*
X184208750Y-103822500D03*
X197135750Y-101282500D03*
D19*
X124618750Y-87312500D03*
D17*
X119538750Y-87312500D03*
D18*
X120808750Y-84772500D03*
D17*
X129698750Y-87312500D03*
D18*
X127158750Y-82232500D03*
D20*
X117533750Y-84772500D03*
X130460750Y-82232500D03*
D19*
X41275000Y-87312500D03*
D18*
X43815000Y-82232500D03*
D17*
X46355000Y-87312500D03*
X36195000Y-87312500D03*
D18*
X37465000Y-84772500D03*
D20*
X34190000Y-84772500D03*
X47117000Y-82232500D03*
D18*
X173196250Y-65722500D03*
D19*
X177006250Y-68262500D03*
D18*
X179546250Y-63182500D03*
D17*
X182086250Y-68262500D03*
X171926250Y-68262500D03*
D20*
X169921250Y-65722500D03*
X182848250Y-63182500D03*
D19*
X176974500Y-117157500D03*
X200850500Y-117157500D03*
D18*
X191452500Y-120332500D03*
D17*
X183832500Y-125412500D03*
D19*
X188912500Y-125412500D03*
D17*
X193992500Y-125412500D03*
D18*
X185102500Y-122872500D03*
D21*
X200850500Y-132397500D03*
X176974500Y-132397500D03*
D20*
X181827500Y-122872500D03*
X194754500Y-120332500D03*
D18*
X136366250Y-73342500D03*
D19*
X138906250Y-68262500D03*
D18*
X142716250Y-70802500D03*
D17*
X143986250Y-68262500D03*
X133826250Y-68262500D03*
D20*
X145991250Y-70802500D03*
X133064250Y-73342500D03*
D18*
X256540000Y-84772500D03*
D17*
X255270000Y-87312500D03*
D18*
X262890000Y-82232500D03*
D19*
X260350000Y-87312500D03*
D17*
X265430000Y-87312500D03*
D20*
X253265000Y-84772500D03*
X266192000Y-82232500D03*
D19*
X134143750Y-106362500D03*
D18*
X130333750Y-103822500D03*
X136683750Y-101282500D03*
D17*
X139223750Y-106362500D03*
X129063750Y-106362500D03*
D20*
X127058750Y-103822500D03*
X139985750Y-101282500D03*
D17*
X76676250Y-68262500D03*
D18*
X77946250Y-65722500D03*
D17*
X86836250Y-68262500D03*
D19*
X81756250Y-68262500D03*
D18*
X84296250Y-63182500D03*
D20*
X74671250Y-65722500D03*
X87598250Y-63182500D03*
D18*
X101758750Y-84772500D03*
D17*
X100488750Y-87312500D03*
D19*
X105568750Y-87312500D03*
D17*
X110648750Y-87312500D03*
D18*
X108108750Y-82232500D03*
D20*
X98483750Y-84772500D03*
X111410750Y-82232500D03*
D17*
X205898750Y-87312500D03*
X195738750Y-87312500D03*
D18*
X197008750Y-84772500D03*
X203358750Y-82232500D03*
D19*
X200818750Y-87312500D03*
D20*
X193733750Y-84772500D03*
X206660750Y-82232500D03*
D19*
X96043750Y-106362500D03*
D17*
X90963750Y-106362500D03*
D18*
X98583750Y-101282500D03*
D17*
X101123750Y-106362500D03*
D18*
X92233750Y-103822500D03*
D20*
X88958750Y-103822500D03*
X101885750Y-101282500D03*
D19*
X268605000Y-89725500D03*
D17*
X265430000Y-77787500D03*
X255270000Y-77787500D03*
D21*
X253365000Y-65849500D03*
D18*
X256540000Y-75247500D03*
D21*
X253365000Y-89725500D03*
D18*
X262890000Y-72707500D03*
D19*
X268605000Y-65849500D03*
X260350000Y-77787500D03*
D20*
X253265000Y-75247500D03*
X266192000Y-72707500D03*
D18*
X220821250Y-46672500D03*
X227171250Y-44132500D03*
D19*
X224631250Y-49212500D03*
D17*
X229711250Y-49212500D03*
X219551250Y-49212500D03*
D20*
X217546250Y-46672500D03*
X230473250Y-44132500D03*
D18*
X212883750Y-101282500D03*
D17*
X215423750Y-106362500D03*
X205263750Y-106362500D03*
D18*
X206533750Y-103822500D03*
D19*
X210343750Y-106362500D03*
D20*
X203258750Y-103822500D03*
X216185750Y-101282500D03*
D17*
X48101250Y-49212500D03*
D18*
X55721250Y-44132500D03*
D17*
X58261250Y-49212500D03*
D18*
X49371250Y-46672500D03*
D19*
X53181250Y-49212500D03*
D20*
X46096250Y-46672500D03*
X59023250Y-44132500D03*
D18*
X73183750Y-103822500D03*
D19*
X76993750Y-106362500D03*
D17*
X71913750Y-106362500D03*
D18*
X79533750Y-101282500D03*
D17*
X82073750Y-106362500D03*
D20*
X69908750Y-103822500D03*
X82835750Y-101282500D03*
D21*
X129349500Y-132397500D03*
X153225500Y-132397500D03*
D18*
X136207500Y-122872500D03*
D19*
X129349500Y-117157500D03*
D17*
X141287500Y-130492500D03*
D18*
X138747500Y-129222500D03*
D19*
X153225500Y-117157500D03*
D17*
X141287500Y-120332500D03*
D19*
X141287500Y-125412500D03*
D22*
X138747500Y-132497500D03*
X136207500Y-119570500D03*
D19*
X72231250Y-49212500D03*
D18*
X74771250Y-44132500D03*
D17*
X67151250Y-49212500D03*
D18*
X68421250Y-46672500D03*
D17*
X77311250Y-49212500D03*
D20*
X65146250Y-46672500D03*
X78073250Y-44132500D03*
D18*
X189071250Y-44132500D03*
D17*
X181451250Y-49212500D03*
D19*
X186531250Y-49212500D03*
D18*
X182721250Y-46672500D03*
D17*
X191611250Y-49212500D03*
D20*
X179446250Y-46672500D03*
X192373250Y-44132500D03*
D18*
X260191250Y-54292500D03*
X266541250Y-51752500D03*
D17*
X267811250Y-49212500D03*
D19*
X262731250Y-49212500D03*
D17*
X257651250Y-49212500D03*
D20*
X269816250Y-51752500D03*
X256889250Y-54292500D03*
D18*
X36671250Y-44132500D03*
D17*
X29051250Y-49212500D03*
D19*
X34131250Y-49212500D03*
D18*
X30321250Y-46672500D03*
D17*
X39211250Y-49212500D03*
D20*
X27046250Y-46672500D03*
X39973250Y-44132500D03*
D17*
X220186250Y-68262500D03*
D18*
X211296250Y-65722500D03*
X217646250Y-63182500D03*
D19*
X215106250Y-68262500D03*
D17*
X210026250Y-68262500D03*
D20*
X208021250Y-65722500D03*
X220948250Y-63182500D03*
D17*
X234473750Y-106362500D03*
D18*
X231933750Y-101282500D03*
D17*
X224313750Y-106362500D03*
D18*
X225583750Y-103822500D03*
D19*
X229393750Y-106362500D03*
D20*
X222308750Y-103822500D03*
X235235750Y-101282500D03*
D18*
X63658750Y-84772500D03*
D17*
X62388750Y-87312500D03*
X72548750Y-87312500D03*
D18*
X70008750Y-82232500D03*
D19*
X67468750Y-87312500D03*
D20*
X60383750Y-84772500D03*
X73310750Y-82232500D03*
D18*
X216058750Y-84772500D03*
D19*
X219868750Y-87312500D03*
D18*
X222408750Y-82232500D03*
D17*
X214788750Y-87312500D03*
X224948750Y-87312500D03*
D20*
X212783750Y-84772500D03*
X225710750Y-82232500D03*
D19*
X257968750Y-68262500D03*
D17*
X263048750Y-68262500D03*
D18*
X260508750Y-63182500D03*
D17*
X252888750Y-68262500D03*
D18*
X254158750Y-65722500D03*
D20*
X250883750Y-65722500D03*
X263810750Y-63182500D03*
D17*
X200501250Y-49212500D03*
D18*
X208121250Y-44132500D03*
X201771250Y-46672500D03*
D19*
X205581250Y-49212500D03*
D17*
X210661250Y-49212500D03*
D20*
X198496250Y-46672500D03*
X211423250Y-44132500D03*
D17*
X41592500Y-87312500D03*
D19*
X36512500Y-87312500D03*
D17*
X31432500Y-87312500D03*
D18*
X40322500Y-89852500D03*
X33972500Y-92392500D03*
D20*
X43597500Y-89852500D03*
X30670500Y-92392500D03*
D18*
X177958750Y-84772500D03*
D17*
X186848750Y-87312500D03*
D18*
X184308750Y-82232500D03*
D17*
X176688750Y-87312500D03*
D19*
X181768750Y-87312500D03*
D20*
X174683750Y-84772500D03*
X187610750Y-82232500D03*
D19*
X243681250Y-49212500D03*
D18*
X241141250Y-54292500D03*
D17*
X238601250Y-49212500D03*
D18*
X247491250Y-51752500D03*
D17*
X248761250Y-49212500D03*
D20*
X250766250Y-51752500D03*
X237839250Y-54292500D03*
D18*
X149383750Y-103822500D03*
D17*
X148113750Y-106362500D03*
X158273750Y-106362500D03*
D18*
X155733750Y-101282500D03*
D19*
X153193750Y-106362500D03*
D20*
X146108750Y-103822500D03*
X159035750Y-101282500D03*
D17*
X167798750Y-87312500D03*
D18*
X158908750Y-84772500D03*
D19*
X162718750Y-87312500D03*
D18*
X165258750Y-82232500D03*
D17*
X157638750Y-87312500D03*
D20*
X155633750Y-84772500D03*
X168560750Y-82232500D03*
D17*
X250507500Y-106362500D03*
D18*
X258127500Y-101282500D03*
X251777500Y-103822500D03*
D19*
X255587500Y-106362500D03*
D17*
X260667500Y-106362500D03*
D20*
X248502500Y-103822500D03*
X261429500Y-101282500D03*
D18*
X35083750Y-65722500D03*
X41433750Y-63182500D03*
D19*
X38893750Y-68262500D03*
D17*
X43973750Y-68262500D03*
X33813750Y-68262500D03*
D20*
X31808750Y-65722500D03*
X44735750Y-63182500D03*
D18*
X33972500Y-111442500D03*
D19*
X36512500Y-106362500D03*
D18*
X40322500Y-108902500D03*
D17*
X31432500Y-106362500D03*
X41592500Y-106362500D03*
D20*
X43597500Y-108902500D03*
X30670500Y-111442500D03*
D18*
X93821250Y-44132500D03*
D19*
X91281250Y-49212500D03*
D18*
X87471250Y-46672500D03*
D17*
X96361250Y-49212500D03*
X86201250Y-49212500D03*
D20*
X84196250Y-46672500D03*
X97123250Y-44132500D03*
D19*
X129381250Y-49212500D03*
D17*
X124301250Y-49212500D03*
D18*
X125571250Y-46672500D03*
X131921250Y-44132500D03*
D17*
X134461250Y-49212500D03*
D20*
X122296250Y-46672500D03*
X135223250Y-44132500D03*
D18*
X146208750Y-82232500D03*
D17*
X148748750Y-87312500D03*
D19*
X143668750Y-87312500D03*
D17*
X138588750Y-87312500D03*
D18*
X139858750Y-84772500D03*
D20*
X136583750Y-84772500D03*
X149510750Y-82232500D03*
D19*
X238918750Y-87312500D03*
D18*
X241458750Y-82232500D03*
X235108750Y-84772500D03*
D17*
X243998750Y-87312500D03*
X233838750Y-87312500D03*
D20*
X231833750Y-84772500D03*
X244760750Y-82232500D03*
D17*
X229076250Y-68262500D03*
X239236250Y-68262500D03*
D18*
X236696250Y-63182500D03*
X230346250Y-65722500D03*
D19*
X234156250Y-68262500D03*
D20*
X227071250Y-65722500D03*
X239998250Y-63182500D03*
D18*
X168433750Y-103822500D03*
D17*
X167163750Y-106362500D03*
D18*
X174783750Y-101282500D03*
D17*
X177323750Y-106362500D03*
D19*
X172243750Y-106362500D03*
D20*
X165158750Y-103822500D03*
X178085750Y-101282500D03*
D18*
X96996250Y-65722500D03*
D17*
X95726250Y-68262500D03*
X105886250Y-68262500D03*
D18*
X103346250Y-63182500D03*
D19*
X100806250Y-68262500D03*
D20*
X93721250Y-65722500D03*
X106648250Y-63182500D03*
D18*
X106521250Y-46672500D03*
D19*
X110331250Y-49212500D03*
D18*
X112871250Y-44132500D03*
D17*
X105251250Y-49212500D03*
X115411250Y-49212500D03*
D20*
X103246250Y-46672500D03*
X116173250Y-44132500D03*
D23*
X162600000Y-32633750D03*
D24*
X166100000Y-36333750D03*
X159090000Y-36333750D03*
D17*
X165100000Y-33843750D03*
X160100000Y-33843750D03*
D25*
X42706250Y-51681250D03*
X44606250Y-51681250D03*
X43656250Y-54681250D03*
X80806250Y-51681250D03*
X82706250Y-51681250D03*
X81756250Y-54681250D03*
X195106250Y-51681250D03*
X197006250Y-51681250D03*
X196056250Y-54681250D03*
X247493750Y-89781250D03*
X249393750Y-89781250D03*
X248443750Y-92781250D03*
X46675000Y-111212500D03*
X48575000Y-111212500D03*
X47625000Y-114212500D03*
X53025000Y-89781250D03*
X54925000Y-89781250D03*
X53975000Y-92781250D03*
X161768750Y-122325000D03*
X163668750Y-122325000D03*
X162718750Y-125325000D03*
X158593750Y-51681250D03*
X160493750Y-51681250D03*
X159543750Y-54681250D03*
X123668750Y-108831250D03*
X125568750Y-108831250D03*
X124618750Y-111831250D03*
X199868750Y-108831250D03*
X201768750Y-108831250D03*
X200818750Y-111831250D03*
X133193750Y-89781250D03*
X135093750Y-89781250D03*
X134143750Y-92781250D03*
X52231250Y-70731250D03*
X54131250Y-70731250D03*
X53181250Y-73731250D03*
X260193750Y-120737500D03*
X262093750Y-120737500D03*
X261143750Y-123737500D03*
X35562500Y-119943750D03*
X37462500Y-119943750D03*
X36512500Y-122943750D03*
X204631250Y-70731250D03*
X206531250Y-70731250D03*
X205581250Y-73731250D03*
X171293750Y-89781250D03*
X173193750Y-89781250D03*
X172243750Y-92781250D03*
X95093750Y-89781250D03*
X96993750Y-89781250D03*
X96043750Y-92781250D03*
X128431250Y-70731250D03*
X130331250Y-70731250D03*
X129381250Y-73731250D03*
X241143750Y-108831250D03*
X243043750Y-108831250D03*
X242093750Y-111831250D03*
X233206250Y-51681250D03*
X235106250Y-51681250D03*
X234156250Y-54681250D03*
X85568750Y-108831250D03*
X87468750Y-108831250D03*
X86518750Y-111831250D03*
X118906250Y-51681250D03*
X120806250Y-51681250D03*
X119856250Y-54681250D03*
X168118750Y-70731250D03*
X170018750Y-70731250D03*
X169068750Y-73731250D03*
X90331250Y-70731250D03*
X92231250Y-70731250D03*
X91281250Y-73731250D03*
X161768750Y-108831250D03*
X163668750Y-108831250D03*
X162718750Y-111831250D03*
X209393750Y-89781250D03*
X211293750Y-89781250D03*
X210343750Y-92781250D03*
X242731250Y-70731250D03*
X244631250Y-70731250D03*
X243681250Y-73731250D03*
M02*
