M48
; DRILL file {KiCad (6.0.1-0)} date Monday, June 20, 2022 at 04:47:58 PM
; FORMAT={-:-/ absolute / metric / decimal}
; #@! TF.CreationDate,2022-06-20T16:47:58-07:00
; #@! TF.GenerationSoftware,Kicad,Pcbnew,(6.0.1-0)
; #@! TF.FileFunction,Plated,1,2,PTH
FMAT,2
METRIC
; #@! TA.AperFunction,Plated,PTH,ViaDrill
T1C0.400
; #@! TA.AperFunction,Plated,PTH,ComponentDrill
T2C0.990
; #@! TA.AperFunction,Plated,PTH,ComponentDrill
T3C1.000
; #@! TA.AperFunction,Plated,PTH,ComponentDrill
T4C1.092
; #@! TA.AperFunction,Plated,PTH,ComponentDrill
T5C1.300
; #@! TA.AperFunction,Plated,PTH,ComponentDrill
T6C1.500
%
G90
G05
T1
X22.225Y-131.762
X26.987Y-46.831
X27.178Y-42.164
X27.781Y-125.412
X31.75Y-65.881
X33.782Y-54.356
X34.131Y-84.931
X38.518Y-121.93
X38.894Y-103.981
X38.9Y-122.853
X39.688Y-53.181
X40.481Y-115.887
X43.656Y-89.694
X43.656Y-108.744
X46.038Y-46.831
X52.387Y-44.45
X53.181Y-84.138
X55.562Y-65.881
X59.531Y-134.144
X60.325Y-84.931
X62.706Y-50.8
X65.087Y-46.831
X65.087Y-108.744
X69.85Y-104.14
X72.136Y-70.104
X74.612Y-65.881
X79.375Y-84.931
X81.756Y-44.45
X84.138Y-46.831
X88.9Y-103.981
X93.662Y-65.881
X93.662Y-123.031
X98.425Y-84.931
X100.806Y-50.8
X103.188Y-46.831
X107.95Y-103.981
X109.537Y-43.656
X110.236Y-70.612
X112.712Y-65.881
X117.475Y-84.931
X119.856Y-43.656
X119.888Y-125.476
X122.237Y-46.831
X126.248Y-122.184
X127.0Y-111.831
X127.0Y-103.981
X133.35Y-52.387
X136.525Y-84.931
X138.906Y-132.556
X139.203Y-50.089
X146.05Y-56.356
X146.05Y-70.644
X146.05Y-103.981
X146.05Y-132.556
X150.368Y-57.404
X154.94Y-124.46
X155.575Y-84.931
X156.281Y-92.781
X160.338Y-46.831
X163.0Y-38.4
X163.068Y-58.928
X165.1Y-70.644
X165.1Y-103.981
X165.9Y-44.1
X169.862Y-65.881
X174.625Y-84.931
X177.006Y-50.8
X179.387Y-46.831
X181.769Y-123.031
X184.15Y-103.981
X188.912Y-65.881
X193.675Y-84.931
X198.438Y-46.831
X203.2Y-103.981
X207.962Y-65.881
X212.725Y-84.931
X215.106Y-51.594
X217.487Y-46.831
X222.25Y-103.981
X227.012Y-65.881
X231.775Y-84.931
X242.57Y-45.212
X246.062Y-46.831
X248.444Y-103.981
X250.825Y-51.594
X250.825Y-65.881
X252.412Y-43.656
X253.206Y-75.406
X253.206Y-84.931
X257.175Y-58.737
X259.08Y-131.572
X265.684Y-128.524
X268.224Y-55.118
X269.081Y-108.744
X269.748Y-42.164
X269.875Y-51.594
X271.018Y-57.658
T2
X160.1Y-33.844
X165.1Y-33.844
T3
X22.106Y-127.438
X22.106Y-141.938
X24.606Y-127.438
X27.106Y-127.438
X27.106Y-141.938
X77.286Y-121.602
X77.286Y-124.142
X77.286Y-126.682
X77.286Y-129.222
X255.086Y-121.602
X255.086Y-124.142
X255.086Y-126.682
X255.086Y-129.222
X269.756Y-127.438
X269.756Y-141.938
X272.256Y-127.438
X274.756Y-127.438
X274.756Y-141.938
T4
X140.811Y-32.703
X140.811Y-35.242
X140.811Y-37.782
X140.811Y-40.322
X140.811Y-42.862
X140.811Y-45.402
X140.811Y-47.942
X140.811Y-50.482
X140.811Y-53.023
X140.811Y-55.562
X140.811Y-58.102
X140.811Y-60.642
X143.351Y-60.642
X145.891Y-60.642
X148.431Y-60.642
X150.971Y-60.642
X153.511Y-60.642
X156.051Y-32.703
X156.051Y-35.242
X156.051Y-37.782
X156.051Y-40.322
X156.051Y-42.862
X156.051Y-45.402
X156.051Y-47.942
X156.051Y-50.482
X156.051Y-53.023
X156.051Y-55.562
X156.051Y-58.102
X156.051Y-60.642
T5
X159.09Y-36.334
X166.1Y-36.334
T6
X19.006Y-134.287G85X19.006Y-135.588
G05
X30.206Y-134.287G85X30.206Y-135.588
G05
X266.656Y-134.287G85X266.656Y-135.588
G05
X277.856Y-134.287G85X277.856Y-135.588
G05
T0
M30
