M48
; DRILL file {KiCad (6.0.1-0)} date Monday, June 20, 2022 at 04:47:58 PM
; FORMAT={-:-/ absolute / metric / decimal}
; #@! TF.CreationDate,2022-06-20T16:47:58-07:00
; #@! TF.GenerationSoftware,Kicad,Pcbnew,(6.0.1-0)
; #@! TF.FileFunction,NonPlated,1,2,NPTH
FMAT,2
METRIC
; #@! TA.AperFunction,NonPlated,NPTH,ComponentDrill
T1C1.200
; #@! TA.AperFunction,NonPlated,NPTH,ComponentDrill
T2C1.750
; #@! TA.AperFunction,NonPlated,NPTH,ComponentDrill
T3C3.000
; #@! TA.AperFunction,NonPlated,NPTH,ComponentDrill
T4C3.048
; #@! TA.AperFunction,NonPlated,NPTH,ComponentDrill
T5C3.988
%
G90
G05
T1
X162.6Y-32.634
T2
X29.051Y-49.212
X31.432Y-87.312
X31.432Y-106.362
X33.814Y-68.263
X36.195Y-87.312
X39.211Y-49.212
X40.957Y-106.362
X41.593Y-87.312
X41.593Y-106.362
X43.974Y-68.263
X46.355Y-87.312
X48.101Y-49.212
X51.117Y-106.362
X52.864Y-106.362
X57.626Y-68.263
X58.261Y-49.212
X62.389Y-87.312
X63.024Y-106.362
X67.151Y-49.212
X67.786Y-68.263
X71.914Y-106.362
X72.549Y-87.312
X76.676Y-68.263
X77.311Y-49.212
X81.439Y-87.312
X82.074Y-106.362
X86.201Y-49.212
X86.836Y-68.263
X90.964Y-106.362
X91.599Y-87.312
X95.726Y-68.263
X95.726Y-125.412
X96.361Y-49.212
X100.489Y-87.312
X101.124Y-106.362
X105.251Y-49.212
X105.886Y-68.263
X105.886Y-125.412
X110.014Y-106.362
X110.649Y-87.312
X114.776Y-68.263
X115.411Y-49.212
X119.539Y-87.312
X120.174Y-106.362
X124.301Y-49.212
X124.936Y-68.263
X129.064Y-106.362
X129.699Y-87.312
X133.826Y-68.263
X134.461Y-49.212
X138.589Y-87.312
X139.224Y-106.362
X141.287Y-120.332
X141.287Y-130.493
X143.986Y-68.263
X148.114Y-106.362
X148.431Y-44.133
X148.431Y-54.292
X148.431Y-120.332
X148.431Y-130.493
X148.749Y-87.312
X152.876Y-68.263
X157.639Y-87.312
X158.274Y-106.362
X162.401Y-49.212
X163.036Y-68.263
X167.164Y-106.362
X167.799Y-87.312
X171.926Y-68.263
X172.561Y-49.212
X176.689Y-87.312
X177.324Y-106.362
X181.451Y-49.212
X182.086Y-68.263
X183.832Y-125.412
X186.214Y-106.362
X186.849Y-87.312
X190.976Y-68.263
X191.611Y-49.212
X193.992Y-125.412
X195.739Y-87.312
X196.374Y-106.362
X200.501Y-49.212
X201.136Y-68.263
X205.264Y-106.362
X205.899Y-87.312
X210.026Y-68.263
X210.661Y-49.212
X214.789Y-87.312
X215.424Y-106.362
X219.551Y-49.212
X220.186Y-68.263
X224.314Y-106.362
X224.949Y-87.312
X229.076Y-68.263
X229.711Y-49.212
X233.839Y-87.312
X234.474Y-106.362
X238.601Y-49.212
X239.236Y-68.263
X243.999Y-87.312
X248.126Y-49.212
X248.761Y-49.212
X250.507Y-106.362
X252.889Y-68.263
X255.27Y-77.787
X255.27Y-87.312
X257.651Y-49.212
X258.286Y-49.212
X260.667Y-106.362
X263.049Y-68.263
X265.43Y-77.787
X265.43Y-87.312
X267.811Y-49.212
T3
X30.321Y-46.672
X33.972Y-92.392
X33.972Y-111.442
X35.084Y-65.722
X36.671Y-44.133
X37.465Y-84.772
X40.322Y-89.852
X40.322Y-108.902
X41.434Y-63.182
X42.227Y-103.822
X43.815Y-82.233
X48.578Y-101.282
X49.371Y-46.672
X55.404Y-111.442
X55.721Y-44.133
X58.896Y-65.722
X61.754Y-108.902
X63.659Y-84.772
X65.246Y-63.182
X68.421Y-46.672
X70.009Y-82.233
X73.184Y-103.822
X74.771Y-44.133
X77.946Y-65.722
X79.534Y-101.282
X82.709Y-84.772
X84.296Y-63.182
X87.471Y-46.672
X89.059Y-82.233
X92.234Y-103.822
X93.821Y-44.133
X96.996Y-65.722
X96.996Y-122.872
X98.584Y-101.282
X101.759Y-84.772
X103.346Y-63.182
X103.346Y-120.332
X106.521Y-46.672
X108.109Y-82.233
X111.284Y-103.822
X112.871Y-44.133
X116.046Y-65.722
X117.634Y-101.282
X120.809Y-84.772
X122.396Y-63.182
X125.571Y-46.672
X127.159Y-82.233
X130.334Y-103.822
X131.921Y-44.133
X136.207Y-122.872
X136.366Y-73.343
X136.684Y-101.282
X138.748Y-129.222
X139.859Y-84.772
X142.716Y-70.802
X143.351Y-46.672
X143.351Y-122.872
X145.891Y-53.023
X145.891Y-129.222
X146.209Y-82.233
X149.384Y-103.822
X155.416Y-73.343
X155.734Y-101.282
X158.909Y-84.772
X161.766Y-70.802
X163.671Y-46.672
X165.259Y-82.233
X168.434Y-103.822
X170.021Y-44.133
X173.196Y-65.722
X174.784Y-101.282
X177.959Y-84.772
X179.546Y-63.182
X182.721Y-46.672
X184.309Y-82.233
X185.102Y-122.872
X187.484Y-103.822
X189.071Y-44.133
X191.452Y-120.332
X192.246Y-65.722
X193.834Y-101.282
X197.009Y-84.772
X198.596Y-63.182
X201.771Y-46.672
X203.359Y-82.233
X206.534Y-103.822
X208.121Y-44.133
X211.296Y-65.722
X212.884Y-101.282
X216.059Y-84.772
X217.646Y-63.182
X220.821Y-46.672
X222.409Y-82.233
X225.584Y-103.822
X227.171Y-44.133
X230.346Y-65.722
X231.934Y-101.282
X235.109Y-84.772
X236.696Y-63.182
X241.141Y-54.292
X241.459Y-82.233
X247.491Y-51.752
X249.396Y-46.672
X251.777Y-103.822
X254.159Y-65.722
X255.746Y-44.133
X256.54Y-75.248
X256.54Y-84.772
X258.127Y-101.282
X260.191Y-54.292
X260.509Y-63.182
X262.89Y-72.707
X262.89Y-82.233
X266.541Y-51.752
T4
X34.099Y-99.377
X57.975Y-99.377
X88.868Y-132.398
X91.281Y-132.398
X112.744Y-132.398
X129.35Y-132.398
X153.225Y-132.398
X176.975Y-132.398
X200.85Y-132.398
X205.581Y-132.398
X241.268Y-42.227
X253.365Y-65.849
X253.365Y-89.725
X265.144Y-42.227
T5
X34.099Y-114.617
X34.131Y-49.212
X36.512Y-87.312
X36.512Y-106.362
X38.894Y-68.263
X41.275Y-87.312
X46.038Y-106.362
X53.181Y-49.212
X57.944Y-106.362
X57.975Y-114.617
X62.706Y-68.263
X67.469Y-87.312
X72.231Y-49.212
X76.994Y-106.362
X81.756Y-68.263
X86.519Y-87.312
X88.868Y-117.157
X91.281Y-49.212
X91.281Y-117.157
X96.044Y-106.362
X100.806Y-68.263
X100.806Y-125.412
X105.569Y-87.312
X110.331Y-49.212
X112.744Y-117.157
X115.094Y-106.362
X119.856Y-68.263
X124.619Y-87.312
X129.35Y-117.157
X129.381Y-49.212
X134.144Y-106.362
X138.906Y-68.263
X141.287Y-125.412
X143.669Y-87.312
X148.431Y-49.212
X148.431Y-125.412
X153.194Y-106.362
X153.225Y-117.157
X157.956Y-68.263
X162.719Y-87.312
X167.481Y-49.212
X172.244Y-106.362
X176.975Y-117.157
X177.006Y-68.263
X181.769Y-87.312
X186.531Y-49.212
X188.912Y-125.412
X191.294Y-106.362
X196.056Y-68.263
X200.819Y-87.312
X200.85Y-117.157
X205.581Y-49.212
X205.581Y-117.157
X210.344Y-106.362
X215.106Y-68.263
X219.869Y-87.312
X224.631Y-49.212
X229.394Y-106.362
X234.156Y-68.263
X238.919Y-87.312
X241.268Y-57.467
X243.681Y-49.212
X253.206Y-49.212
X255.587Y-106.362
X257.969Y-68.263
X260.35Y-77.787
X260.35Y-87.312
X262.731Y-49.212
X265.144Y-57.467
X268.605Y-65.849
X268.605Y-89.725
T0
M30
